<svg width="12" height="12" viewBox="0 0 12 12" fill="none" xmlns="http://www.w3.org/2000/svg">
<path d="M11.1749 4.17237L7.71298 3.63184L6.16542 0.261236C6.12315 0.168951 6.05361 0.0942437 5.96771 0.0488335C5.75228 -0.0654243 5.49049 0.0297906 5.38277 0.261236L3.83521 3.63184L0.373303 4.17237C0.277858 4.18702 0.190595 4.23536 0.123784 4.3086C0.0430128 4.39779 -0.00149563 4.51778 3.83767e-05 4.64221C0.00157238 4.76663 0.0490233 4.88531 0.131965 4.97217L2.6367 7.59571L2.04494 11.3003C2.03107 11.3865 2.03994 11.4751 2.07057 11.5561C2.10119 11.6372 2.15233 11.7074 2.2182 11.7588C2.28407 11.8102 2.36202 11.8407 2.44322 11.8469C2.52442 11.8531 2.60562 11.8348 2.6776 11.794L5.77409 10.0449L8.87058 11.794C8.95512 11.8423 9.05329 11.8584 9.14737 11.8408C9.38462 11.7969 9.54415 11.5552 9.50324 11.3003L8.91149 7.59571L11.4162 4.97217C11.4844 4.9004 11.5294 4.80665 11.543 4.70411C11.5798 4.44776 11.4135 4.21045 11.1749 4.17237Z" fill="#FFC700"/>
</svg>
