<svg width="270" height="123" viewBox="0 0 270 123" fill="none" xmlns="http://www.w3.org/2000/svg">
<path d="M191.158 74.0312L188.305 74.0368L184.526 65.5116H172.283L168.497 74.0255L165.68 74.0312L176.984 48.6099H179.889L187.685 66.1987L191.158 74.0312ZM183.51 63.21L178.437 51.5071L173.346 63.21H183.51ZM203.49 50.9116H197.536V74.0312H194.914V50.9116H188.89V48.6099H203.49V50.9116ZM220.747 74.0312H206.431V48.6099H220.747V50.9116H209.053V60.0838H220.357V62.3856H209.053V71.7296H220.747V74.0312ZM238.89 74.0312H225.424V48.6099H228.047V71.7296H238.89V74.0312ZM244.418 74.0312H241.795V48.6099H244.418V74.0312ZM264.12 74.0312H249.804V48.6099H264.12V50.9116H252.426V60.0838H263.73V62.3856H252.426V71.7296H264.12V74.0312ZM263.234 47.442L259.95 47.4706L256.921 44.9114L253.808 47.442H250.619L255.757 43.1134H258.025L263.234 47.442Z" fill="#D94167"/>
<path d="M45.2313 84.9841C43.0235 84.8276 41.6369 85.7542 41.0716 87.7639C40.7485 88.9384 40.5398 90.6676 40.4456 92.9514C40.3513 95.2352 40.3176 98.1977 40.3446 101.839C40.3715 105.48 40.3715 107.862 40.3446 108.984C40.2908 111.411 40.1426 113.088 39.9004 114.015C39.658 114.941 39.2003 115.405 38.5274 115.405C37.6388 115.405 36.5551 113.532 35.2763 109.786C33.9974 106.041 32.7051 101.708 31.3993 96.7883C30.0936 91.8682 29.1983 88.821 28.7138 87.6464C27.9329 85.715 26.2638 84.8929 23.706 85.1799C23.1944 85.2843 22.9252 85.3365 22.8983 85.3365C21.6329 85.6237 21.054 86.2892 21.1618 87.3332C21.431 89.1342 21.579 91.157 21.606 93.4016C21.6329 95.6463 21.5454 97.9824 21.3434 100.41C21.1416 102.837 20.7646 105.193 20.2128 107.476C19.6608 109.76 18.981 111.809 18.1733 113.623C17.3656 115.437 16.3223 116.899 15.0434 118.008C13.7646 119.117 12.3444 119.672 10.7828 119.672C9.19426 119.672 7.90196 119.163 6.90589 118.145C5.90969 117.127 5.41159 115.639 5.41159 113.682C5.41159 111.724 5.95675 110.158 7.04719 108.984C8.13764 107.809 9.32888 107.144 10.6212 106.987C11.052 106.935 11.3482 106.817 11.5098 106.635C11.6713 106.452 11.7251 106.243 11.6713 106.008C11.4828 105.565 10.9443 105.343 10.0558 105.343C9.24814 105.343 8.40674 105.447 7.53179 105.656C6.65685 105.865 5.76157 106.211 4.84625 106.693C3.93079 107.176 3.12308 107.764 2.42313 108.455C1.72303 109.147 1.14418 110.028 0.686594 111.098C0.228865 112.168 0 113.343 0 114.622C0 117.101 0.949009 119.117 2.84717 120.67C4.74518 122.223 7.02701 123 9.69236 123C11.8194 123 13.7444 122.491 15.4674 121.473C17.1906 120.455 18.6309 119.098 19.7886 117.401C20.9464 115.705 21.9223 113.708 22.7166 111.411C23.5108 109.114 24.0829 106.726 24.433 104.247C24.783 101.767 24.9579 99.183 24.9579 96.4946C25.3618 97.9562 25.6647 99.0329 25.8666 99.7246C26.0686 100.416 26.3782 101.473 26.7954 102.896C27.2128 104.318 27.5561 105.415 27.8253 106.185C28.0945 106.954 28.4512 107.953 28.8954 109.18C29.3396 110.406 29.7368 111.372 30.0868 112.077C30.4368 112.781 30.8541 113.604 31.3387 114.543C31.8233 115.483 32.2879 116.214 32.7321 116.736C33.1763 117.258 33.6609 117.78 34.1859 118.302C34.7109 118.824 35.2628 119.196 35.8417 119.418C36.4205 119.64 37.0062 119.75 37.5984 119.75C39.6716 119.75 41.1322 118.922 41.9802 117.264C42.8283 115.607 43.4409 112.938 43.8177 109.258C44.0062 107.561 44.1341 105.095 44.2014 101.858C44.2688 98.6218 44.4639 95.9466 44.787 93.8323C45.11 91.7182 45.7159 89.8128 46.6043 88.1162C47.6005 86.1848 47.1428 85.1408 45.2313 84.9841ZM74.7526 106.048C73.8911 108.762 72.8949 111.013 71.7641 112.801C70.6334 114.589 69.4756 115.483 68.2911 115.483C67.7257 115.483 67.315 115.163 67.0593 114.524C66.8036 113.884 66.6958 113.023 66.7362 111.94C66.7766 110.857 66.8641 109.786 66.9987 108.729C67.1334 107.672 67.2882 106.537 67.4632 105.323C67.6381 104.11 67.7391 103.255 67.7661 102.759C67.9276 100.671 66.6891 99.4178 64.0507 99.0003C62.7852 98.8175 62.139 99.1961 62.1121 100.136C62.1121 101.31 61.9371 102.987 61.5872 105.167C61.2372 107.346 60.793 109.075 60.2545 110.354C59.689 111.764 59.0294 112.86 58.2756 113.643C57.5217 114.426 56.7679 114.817 56.0139 114.817C54.9909 114.817 54.2168 114.321 53.6919 113.33C53.1669 112.338 52.9044 111.072 52.9044 109.532C52.9044 107.914 53.1669 106.309 53.6919 104.716C54.2168 103.124 55.0044 101.8 56.0543 100.742C57.1044 99.6854 58.2891 99.2613 59.6083 99.47C59.9852 99.5223 60.2813 99.4636 60.4967 99.2939C60.7121 99.1243 60.8131 98.922 60.7996 98.687C60.7861 98.4522 60.6852 98.2825 60.4967 98.1781C59.689 97.7343 58.8005 97.5125 57.8314 97.5125C54.789 97.5125 52.2448 98.7457 50.1985 101.212C48.1524 103.679 47.1293 106.583 47.1293 109.923C47.1293 112.194 47.7148 114.08 48.886 115.581C50.0572 117.082 51.7602 117.832 53.9948 117.832C55.7717 117.832 57.3266 117.297 58.6592 116.227C59.9919 115.157 61.0756 113.734 61.9103 111.959C62.341 116.057 64.266 118.106 67.6852 118.106C69.8661 118.106 71.6969 117.114 73.1777 115.131C74.6585 113.147 75.9508 110.367 77.0546 106.791C77.2431 106.165 77.1825 105.676 76.8728 105.323C76.5632 104.971 76.1728 104.86 75.7017 104.99C75.2305 105.121 74.9142 105.473 74.7526 106.048ZM147.365 121.277C147.311 120.964 147.069 120.781 146.638 120.729C145.803 120.651 145.103 120.423 144.538 120.044C143.972 119.666 143.461 118.993 143.003 118.028C142.68 117.297 142.397 116.514 142.155 115.679C141.913 114.843 141.738 113.904 141.63 112.86C141.522 111.816 141.428 110.876 141.347 110.041C141.267 109.206 141.247 108.142 141.287 106.85C141.327 105.558 141.354 104.56 141.368 103.855C141.381 103.15 141.462 102.08 141.61 100.645C141.758 99.209 141.852 98.2499 141.893 97.767C141.933 97.2841 142.041 96.3184 142.216 94.8698C142.391 93.4212 142.492 92.6056 142.519 92.4229C142.761 90.3348 141.671 88.8601 139.247 87.9988C138.844 87.8683 138.548 87.7769 138.359 87.7247C138.171 87.6725 137.888 87.6334 137.511 87.6073C137.134 87.5811 136.824 87.6595 136.582 87.8421C136.34 88.0249 136.138 88.325 135.976 88.7427C135.68 89.4996 134.792 92.4294 133.311 97.532C131.83 102.635 130.403 106.824 129.03 110.1C127.657 113.375 126.378 115.013 125.193 115.013C124.493 115.013 124.036 114.282 123.82 112.821C123.605 111.359 123.598 109.48 123.8 107.183C124.002 104.886 124.251 102.55 124.547 100.175C124.843 97.7997 125.113 95.4701 125.355 93.1864C125.597 90.9025 125.692 89.2647 125.638 88.2729C125.503 86.1848 124.184 84.8929 121.68 84.3969C121.626 84.3969 121.559 84.3838 121.478 84.3578C120.967 84.175 120.394 84.1555 119.762 84.2991C119.129 84.4425 118.732 84.8798 118.57 85.6106C118.086 88.0902 117.419 90.7459 116.571 93.5779C115.723 96.4097 114.653 99.3526 113.361 102.406C112.068 105.46 110.675 108.201 109.181 110.628C107.687 113.056 105.984 115.052 104.072 116.618C102.161 118.184 100.235 118.967 98.2971 118.967C96.7086 118.967 95.3692 118.445 94.2788 117.401C93.1883 116.357 92.6432 114.856 92.6432 112.899C92.6432 110.941 93.2287 109.375 94.3999 108.201C95.5711 107.026 96.8163 106.361 98.1355 106.204C98.5663 106.152 98.8624 106.034 99.0239 105.852C99.1856 105.669 99.2393 105.46 99.1856 105.225C98.9971 104.782 98.4586 104.56 97.5701 104.56C96.7624 104.56 95.9075 104.664 95.0057 104.873C94.1038 105.082 93.1883 105.428 92.2595 105.91C91.3307 106.393 90.4959 106.981 89.7556 107.672C89.0153 108.364 88.4094 109.245 87.9383 110.315C87.4671 111.385 87.2316 112.56 87.2316 113.839C87.2316 116.318 88.2411 118.334 90.2604 119.887C92.2797 121.44 94.7028 122.217 97.5298 122.217C100.034 122.217 102.43 121.486 104.718 120.024C107.007 118.563 109.039 116.56 110.816 114.015C112.593 111.47 114.155 108.742 115.501 105.832C116.847 102.922 118.045 99.7702 119.095 96.3772C118.988 97.9693 118.914 99.2744 118.873 100.292C118.833 101.31 118.792 102.576 118.752 104.09C118.712 105.604 118.725 106.85 118.792 107.829C118.86 108.808 118.954 109.897 119.075 111.098C119.196 112.299 119.398 113.277 119.681 114.034C119.964 114.791 120.3 115.509 120.69 116.188C121.081 116.866 121.579 117.369 122.185 117.695C122.791 118.021 123.47 118.184 124.224 118.184C125.436 118.184 126.445 117.845 127.253 117.166C128.169 116.41 129.023 115.418 129.818 114.191C130.612 112.964 131.372 111.418 132.099 109.551C132.826 107.685 133.405 106.126 133.836 104.873C134.267 103.62 134.832 101.832 135.532 99.5092C135.128 105.46 135.64 110.72 137.067 115.287C137.74 117.48 138.729 119.215 140.035 120.494C141.341 121.773 142.923 122.413 144.78 122.413C146.611 122.413 147.473 122.034 147.365 121.277ZM168.365 106.048C167.503 108.814 166.198 111 164.448 112.605C162.698 114.211 160.665 115.013 158.35 115.013C156.68 115.013 155.321 114.537 154.271 113.584C153.221 112.631 152.507 111.411 152.13 109.923C152.4 109.95 152.776 109.963 153.261 109.963C156.223 109.963 158.733 109.343 160.793 108.103C162.853 106.863 163.936 105.277 164.044 103.346C164.125 101.832 163.465 100.481 162.065 99.2939C160.665 98.1063 158.767 97.5125 156.371 97.5125C153.086 97.5125 150.528 98.55 148.698 100.625C146.867 102.7 145.951 105.212 145.951 108.162C145.951 109.388 146.167 110.563 146.598 111.685C147.028 112.808 147.661 113.845 148.496 114.798C149.33 115.75 150.468 116.507 151.908 117.069C153.349 117.63 154.984 117.91 156.815 117.91C160.073 117.91 162.92 116.958 165.356 115.052C167.793 113.147 169.563 110.393 170.667 106.791C170.855 106.165 170.795 105.676 170.485 105.323C170.176 104.971 169.785 104.86 169.314 104.99C168.843 105.121 168.527 105.473 168.365 106.048ZM156.25 99.2744C157.327 99.2744 158.114 99.6201 158.612 100.312C159.11 101.003 159.319 101.884 159.238 102.955C159.13 104.312 158.444 105.48 157.178 106.459C155.913 107.437 154.338 107.927 152.453 107.927H151.848V107.535C151.848 106.152 151.989 104.853 152.272 103.64C152.554 102.426 153.046 101.395 153.746 100.547C154.446 99.6985 155.28 99.2744 156.25 99.2744ZM197.038 106.048C196.177 108.762 195.181 111.02 194.05 112.821C192.919 114.622 191.761 115.522 190.577 115.522C188.962 115.522 187.992 114.478 187.669 112.39C187.508 111.215 187.588 108.749 187.911 104.99C187.992 103.842 188.134 102.282 188.335 100.312C188.537 98.3413 188.685 96.8143 188.78 95.7311C188.874 94.648 188.962 93.2516 189.042 91.542C189.123 89.8324 189.096 88.6513 188.962 87.9988C188.719 85.9368 187.252 84.945 184.559 85.0232C183.375 85.1017 182.823 85.5846 182.904 86.4719C183.065 87.4637 183.072 89.8911 182.924 93.754C182.776 97.6169 182.513 101.062 182.136 104.09C181.732 107.17 181.275 109.297 180.763 110.472C180.225 111.855 179.558 112.925 178.764 113.682C177.97 114.439 177.182 114.817 176.402 114.817C175.379 114.817 174.605 114.321 174.08 113.33C173.555 112.338 173.292 111.072 173.292 109.532C173.292 107.914 173.555 106.309 174.08 104.716C174.605 103.124 175.392 101.8 176.442 100.742C177.492 99.6854 178.677 99.2613 179.996 99.47C180.454 99.5483 180.79 99.4962 181.006 99.3135C181.221 99.1308 181.302 98.922 181.248 98.687C181.194 98.4522 181.073 98.2825 180.884 98.1781C179.996 97.7343 179.108 97.5125 178.219 97.5125C176.604 97.5125 175.103 97.891 173.716 98.6479C172.33 99.4049 171.192 100.384 170.304 101.584C169.415 102.785 168.729 104.11 168.244 105.558C167.759 107.007 167.517 108.462 167.517 109.923C167.517 112.194 168.103 114.08 169.274 115.581C170.445 117.082 172.148 117.832 174.383 117.832C176.294 117.832 177.936 117.225 179.309 116.011C180.683 114.798 181.76 113.186 182.54 111.176C183.375 115.796 185.852 118.106 189.971 118.106C192.152 118.106 193.983 117.114 195.463 115.131C196.944 113.147 198.236 110.367 199.34 106.791C199.529 106.165 199.468 105.676 199.159 105.323C198.849 104.971 198.459 104.86 197.987 104.99C197.516 105.121 197.2 105.473 197.038 106.048ZM200.714 96.5338C201.763 96.5338 202.632 96.2271 203.318 95.6137C204.005 95.0004 204.375 94.2369 204.429 93.3234C204.483 92.462 204.166 91.7181 203.48 91.0918C202.793 90.4653 201.952 90.1521 200.956 90.1521C199.852 90.1521 198.963 90.4522 198.29 91.0525C197.617 91.653 197.254 92.4098 197.2 93.3234C197.146 94.2108 197.462 94.9677 198.149 95.5942C198.836 96.2205 199.69 96.5338 200.714 96.5338ZM199.058 116.227C200.296 117.558 201.939 118.224 203.985 118.224C205.385 118.224 206.65 117.917 207.781 117.303C208.912 116.69 209.894 115.829 210.729 114.719C211.564 113.61 212.27 112.416 212.849 111.137C213.428 109.858 213.96 108.41 214.444 106.791C214.633 106.165 214.572 105.676 214.263 105.323C213.953 104.971 213.569 104.86 213.112 104.99C212.654 105.121 212.331 105.473 212.142 106.048C210.177 112.39 207.835 115.561 205.115 115.561C204.254 115.561 203.608 115.131 203.177 114.269C202.908 113.695 202.739 112.905 202.672 111.901C202.605 110.896 202.591 110.021 202.632 109.278C202.672 108.534 202.773 107.359 202.935 105.754C203.096 104.149 203.204 103.072 203.258 102.524C203.446 100.253 202.221 99.0264 199.583 98.8437C198.264 98.7654 197.55 99.3135 197.442 100.488C196.581 108.945 197.119 114.191 199.058 116.227ZM240.816 106.048C239.954 108.762 238.958 111.02 237.827 112.821C236.697 114.622 235.539 115.522 234.354 115.522C232.739 115.522 231.769 114.478 231.446 112.39C231.285 111.215 231.366 108.749 231.689 104.99C231.769 103.842 231.911 102.282 232.113 100.312C232.315 98.3413 232.463 96.8143 232.557 95.7311C232.651 94.648 232.739 93.2516 232.82 91.542C232.9 89.8324 232.873 88.6513 232.739 87.9988C232.496 85.9368 231.029 84.945 228.337 85.0232C227.152 85.1017 226.6 85.5846 226.681 86.4719C226.843 87.4637 226.849 89.8911 226.701 93.754C226.553 97.6169 226.291 101.062 225.914 104.09C225.51 107.17 225.052 109.297 224.541 110.472C224.002 111.855 223.336 112.925 222.542 113.682C221.747 114.439 220.96 114.817 220.179 114.817C219.156 114.817 218.382 114.321 217.857 113.33C217.332 112.338 217.069 111.072 217.069 109.532C217.069 107.914 217.332 106.309 217.857 104.716C218.382 103.124 219.169 101.8 220.219 100.742C221.269 99.6854 222.454 99.2613 223.773 99.47C224.231 99.5483 224.567 99.4962 224.783 99.3135C224.998 99.1308 225.079 98.922 225.025 98.687C224.971 98.4522 224.85 98.2825 224.662 98.1781C223.773 97.7343 222.885 97.5125 221.996 97.5125C220.381 97.5125 218.88 97.891 217.493 98.6479C216.107 99.4049 214.969 100.384 214.081 101.584C213.192 102.785 212.506 104.11 212.021 105.558C211.537 107.007 211.294 108.462 211.294 109.923C211.294 112.194 211.88 114.08 213.051 115.581C214.222 117.082 215.925 117.832 218.16 117.832C220.071 117.832 221.714 117.225 223.087 116.011C224.46 114.798 225.537 113.186 226.318 111.176C227.152 115.796 229.629 118.106 233.748 118.106C235.929 118.106 237.76 117.114 239.241 115.131C240.722 113.147 242.014 110.367 243.118 106.791C243.306 106.165 243.246 105.676 242.936 105.323C242.626 104.971 242.236 104.86 241.765 104.99C241.294 105.121 240.977 105.473 240.816 106.048ZM267.591 106.048C266.73 108.762 265.733 111.013 264.603 112.801C263.472 114.589 262.314 115.483 261.129 115.483C260.564 115.483 260.153 115.163 259.898 114.524C259.642 113.884 259.534 113.023 259.575 111.94C259.615 110.857 259.703 109.786 259.837 108.729C259.972 107.672 260.127 106.537 260.302 105.323C260.477 104.11 260.578 103.255 260.605 102.759C260.766 100.671 259.528 99.4178 256.889 99.0003C255.624 98.8175 254.977 99.1961 254.951 100.136C254.951 101.31 254.776 102.987 254.426 105.167C254.076 107.346 253.631 109.075 253.093 110.354C252.527 111.764 251.868 112.86 251.114 113.643C250.36 114.426 249.606 114.817 248.852 114.817C247.829 114.817 247.055 114.321 246.53 113.33C246.005 112.338 245.743 111.072 245.743 109.532C245.743 107.914 246.005 106.309 246.53 104.716C247.055 103.124 247.843 101.8 248.893 100.742C249.943 99.6854 251.128 99.2613 252.447 99.47C252.824 99.5223 253.12 99.4636 253.335 99.2939C253.55 99.1243 253.652 98.922 253.638 98.687C253.625 98.4522 253.524 98.2825 253.335 98.1781C252.527 97.7343 251.639 97.5125 250.67 97.5125C247.627 97.5125 245.083 98.7457 243.037 101.212C240.991 103.679 239.968 106.583 239.968 109.923C239.968 112.194 240.553 114.08 241.724 115.581C242.896 117.082 244.599 117.832 246.833 117.832C248.61 117.832 250.165 117.297 251.498 116.227C252.83 115.157 253.914 113.734 254.749 111.959C255.179 116.057 257.104 118.106 260.524 118.106C262.705 118.106 264.535 117.114 266.016 115.131C267.497 113.147 268.789 110.367 269.893 106.791C270.082 106.165 270.021 105.676 269.711 105.323C269.402 104.971 269.011 104.86 268.54 104.99C268.069 105.121 267.753 105.473 267.591 106.048Z" fill="#D94167"/>
<path fill-rule="evenodd" clip-rule="evenodd" d="M80.9957 11.6028C81.2671 8.57329 82.3375 8.83889 84.8765 8.0124L83.8147 12.5652L80.9957 11.6028ZM150.912 46.1437C150.458 46.5552 150.253 46.616 149.783 46.9809C149.355 47.3128 149.065 47.6027 148.654 47.9037C147.863 48.4834 147.196 48.6493 146.447 49.4387C144.989 49.9916 139.363 53.6063 138.206 53.1472C137.48 52.8598 135.2 50.9231 134.743 50.481C129.378 45.2895 124.506 37.8098 123.682 29.5745C123.226 25.0234 123.694 21.5745 125.609 18.4327C126.814 16.4558 129.381 13.6708 132.702 13.2416C141.81 12.0652 140.19 25.3991 141.846 29.4363C142.981 28.1654 145.32 23.5086 149.035 20.2123C151.885 17.6845 157.851 16.9457 160.403 19.9383C164.909 25.2213 159.677 36.4316 155.828 41.1607C154.023 43.3788 152.856 44.3409 150.912 46.1437ZM164.303 21.2733C161.435 12.1212 150.28 13.4197 145.192 19.9336C144.511 20.8058 144.069 21.9936 143.219 22.7692C142.97 18.398 142.508 16.4002 140.607 13.5969C139.223 11.5557 136.166 9.71842 132.685 10.09C127.274 10.6674 122.344 16.2773 121.333 21.8403C119.508 31.8858 123.821 41.8834 129.352 48.632C132.959 53.0324 132.52 51.7955 135.186 54.5195C133.77 55.5481 126.507 57.6466 124.143 58.545C120.548 59.9111 116.322 61.5253 112.243 61.8373C103.493 62.5065 97.1993 55.3707 99.0976 44.0616C100.618 35.0004 110.354 14.8925 98.6042 6.18911C94.8041 3.37427 90.7648 4.42493 86.5376 5.41957C86.6409 2.72755 85.9876 -2.10276 83.3443 1.0098C81.9153 2.69246 81.1627 5.08205 80.6254 7.91874C77.6835 9.23783 73.5235 10.0833 70.1466 10.6044C68.2891 10.8911 59.0099 11.5077 58.3185 11.8815C60.3386 12.7268 67.3159 12.0378 69.8306 11.8007C71.649 11.6293 73.4093 11.3756 75.1442 11.0321C76.817 10.7008 78.5987 10.0097 80.1814 9.82342C79.5661 13.7444 78.3561 18.615 77.4639 22.6301L63.7551 86.7441C62.9294 90.6686 58.4883 110.322 58.4106 112.377L82.7264 20.6177C83.739 16.5283 85.5265 11.2842 86.1666 7.36015C90.3917 6.17791 95.6441 5.56789 98.64 8.67883C101.413 11.5579 102.986 16.763 102.294 22.4079C100.905 33.7341 89.4396 53.0461 103.271 62.3907C110.813 67.4863 120.631 62.9258 128.76 60.0037C130.734 59.2939 132.68 58.7039 134.723 57.9576C139.538 56.1988 137.787 56.5117 140.55 57.4211C146.364 59.3348 155.648 58.1392 159.359 62.6773C160.887 64.5453 160.808 66.5463 161.398 69.482C163.853 81.6944 173.603 78.7247 182.691 75.8821C196.327 71.617 196.656 75.3643 205.641 81.8334C209.096 84.3205 213.669 84.8705 218.155 85.441C222.277 85.9651 229.144 86.336 231.092 82.9535C228.797 84.284 228.316 84.7018 225.15 84.8013C219.463 84.9798 210.466 83.3378 206.064 80.2114C197.676 74.2548 196.99 69.4617 183.82 73.2905C180.337 74.3031 174.491 76.2662 170.725 76.0482C159.108 75.3756 168.218 61.7122 155.913 57.4671C151.457 55.9297 146.501 56.3271 142.374 54.954C151.669 48.7733 169.492 37.8297 164.303 21.2733ZM81.9347 7.37148C82.4429 5.41134 83.0548 3.6118 84.6554 3.18601C85.0012 4.21426 85.059 4.69295 85.0344 6.07115L81.9347 7.37148Z" fill="#D94167"/>
</svg>
