<?xml version="1.0" encoding="UTF-8"?>
<!DOCTYPE svg PUBLIC "-//W3C//DTD SVG 1.1//EN" "http://www.w3.org/Graphics/SVG/1.1/DTD/svg11.dtd">
<!-- Creator: CorelDRAW 2020 (64 Bit) -->
<svg xmlns="http://www.w3.org/2000/svg" xml:space="preserve" width="210mm" height="210mm" version="1.1" style="shape-rendering:geometricPrecision; text-rendering:geometricPrecision; image-rendering:optimizeQuality; fill-rule:evenodd; clip-rule:evenodd"
viewBox="0 0 21000 21000"
 xmlns:xlink="http://www.w3.org/1999/xlink"
 xmlns:xodm="http://www.corel.com/coreldraw/odm/2003">
 <defs>
  <style type="text/css">
   <![CDATA[
    .str0 {stroke:#D94167;stroke-width:290.15;stroke-linecap:round;stroke-linejoin:round;stroke-miterlimit:22.9256}
    .str1 {stroke:#D94167;stroke-width:145.09;stroke-linecap:round;stroke-linejoin:round;stroke-miterlimit:22.9256;stroke-dasharray:145.090000 725.450000}
    .fil1 {fill:none}
    .fil0 {fill:#D94167}
    .fil2 {fill:white}
    .fil3 {fill:#D94167;fill-rule:nonzero}
   ]]>
  </style>
 </defs>
 <g id="Camada_x0020_1">
  <metadata id="CorelCorpID_0Corel-Layer"/>
  <polygon class="fil0" points="10384.14,2290.41 13942.09,4344.59 17500.03,6398.76 17500.03,10507.13 17500.03,14615.5 13942.09,16669.67 10384.14,18723.85 6826.19,16669.67 3268.25,14615.5 3268.25,10507.13 3268.25,6398.76 6826.19,4344.59 "/>
  <g>
   <polygon class="fil1 str0" points="6275.78,3391.24 10384.14,3391.24 14492.5,3391.23 16546.68,6949.18 18600.87,10507.13 16546.68,14065.07 14492.5,17623.02 10384.14,17623.02 6275.78,17623.03 4221.6,14065.08 2167.41,10507.13 4221.6,6949.19 "/>
   <polygon id="1" class="fil2" points="6275.78,3391.24 10384.14,3391.24 14492.5,3391.23 16546.68,6949.18 18600.87,10507.13 16546.68,14065.07 14492.5,17623.02 10384.14,17623.02 6275.78,17623.03 4221.6,14065.08 2167.41,10507.13 4221.6,6949.19 "/>
  </g>
  <polygon class="fil1 str1" points="6620.33,3988.02 10384.14,3988.02 14147.95,3988.01 16029.86,7247.57 17911.77,10507.13 16029.86,13766.69 14147.95,17026.24 10384.14,17026.24 6620.33,17026.25 4738.42,13766.69 2856.51,10507.13 4738.42,7247.57 "/>
  <g>
   <path class="fil3" d="M12704.13 11041.51l-117.95 0.25 -156.25 -363.57 -506.18 0 -156.5 363.08 -116.47 0.24 467.33 -1084.1 120.13 0 322.3 750.08 143.59 334.02zm-316.21 -461.46l-209.74 -499.1 -210.46 499.1 420.2 0zm826.02 -524.5l-246.11 0 0 985.96 -108.41 0 0 -985.96 -249.06 0 0 -98.14 603.58 0 0 98.14zm713.47 985.96l-591.86 0 0 -1084.1 591.86 0 0 98.14 -483.45 0 0 391.17 467.32 0 0 98.16 -467.32 0 0 398.49 483.45 0 0 98.14zm750.08 0l-556.69 0 0 -1084.1 108.4 0 0 985.96 448.29 0 0 98.14zm228.56 0l-108.41 0 0 -1084.1 108.41 0 0 1084.1zm814.55 0l-591.86 0 0 -1084.1 591.86 0 0 98.14 -483.45 0 0 391.17 467.33 0 0 98.16 -467.33 0 0 398.49 483.45 0 0 98.14zm-36.62 -1133.91l-135.76 1.22 -125.27 -109.15 -128.68 107.93 -131.85 0 212.44 -184.59 93.76 0 215.36 184.59z"/>
   <path class="fil3" d="M6671.13 11508.6c-91.28,-6.67 -148.61,32.83 -171.99,118.54 -13.34,50.09 -21.98,123.83 -25.87,221.23 -3.9,97.39 -5.28,223.73 -4.17,379.02 1.11,155.27 1.11,256.83 0,304.7 -2.22,103.51 -8.35,175.03 -18.36,214.55 -10.04,39.52 -28.95,59.26 -56.78,59.26 -36.72,0 -81.53,-79.87 -134.39,-239.58 -52.89,-159.73 -106.31,-344.51 -160.29,-554.33 -54,-209.82 -91.01,-339.76 -111.04,-389.85 -32.28,-82.37 -101.29,-117.43 -207.02,-105.2 -21.16,4.47 -32.29,6.69 -33.4,6.69 -52.33,12.25 -76.24,40.63 -71.8,85.15 11.14,76.8 17.25,163.06 18.36,258.8 1.11,95.72 -2.49,195.35 -10.84,298.86 -8.35,103.51 -23.93,203.96 -46.76,301.37 -22.82,97.38 -50.91,184.77 -84.3,262.13 -33.4,77.36 -76.54,139.68 -129.41,187 -52.86,47.31 -111.59,70.96 -176.14,70.96 -65.67,0 -119.09,-21.72 -160.28,-65.12 -41.19,-43.41 -61.79,-106.85 -61.79,-190.33 0,-83.49 22.55,-150.27 67.63,-200.36 45.07,-50.1 94.32,-78.47 147.76,-85.15 17.81,-2.23 30.04,-7.24 36.73,-15.04 6.68,-7.79 8.9,-16.69 6.68,-26.71 -7.79,-18.92 -30.06,-28.37 -66.79,-28.37 -33.39,0 -68.18,4.44 -104.35,13.34 -36.17,8.9 -73.19,23.67 -111.02,44.25 -37.86,20.59 -71.25,45.63 -100.18,75.14 -28.96,29.49 -52.87,67.05 -71.81,112.7 -18.92,45.63 -28.38,95.72 -28.38,150.25 0,105.76 39.24,191.75 117.71,257.96 78.48,66.24 172.8,99.36 283,99.36 87.95,0 167.52,-21.71 238.75,-65.12 71.25,-43.41 130.8,-101.29 178.65,-173.65 47.87,-72.34 88.22,-157.49 121.06,-255.45 32.83,-97.94 56.48,-199.79 70.96,-305.54 14.47,-105.74 21.71,-215.93 21.71,-330.59 16.7,62.35 29.22,108.24 37.57,137.75 8.35,29.49 21.14,74.58 38.39,135.24 17.25,60.66 31.44,107.42 42.59,140.24 11.12,32.84 25.86,75.42 44.23,127.73 18.38,52.32 34.79,93.5 49.26,123.57 14.46,30.04 31.71,65.1 51.76,105.17 20.03,40.08 39.23,71.23 57.6,93.5 18.36,22.27 38.41,44.52 60.1,66.79 21.72,22.27 44.52,38.12 68.46,47.58 23.93,9.46 48.13,14.19 72.62,14.19 85.71,0 146.1,-35.33 181.16,-106.02 35.06,-70.68 60.39,-184.49 75.98,-341.45 7.79,-72.33 13.08,-177.53 15.85,-315.55 2.78,-138.02 10.86,-252.12 24.21,-342.27 13.36,-90.16 38.41,-171.41 75.13,-243.77 41.19,-82.37 22.27,-126.89 -56.75,-133.57zm1220.5 898.26c-35.62,115.77 -76.8,211.77 -123.56,288.02 -46.74,76.25 -94.61,114.37 -143.59,114.37 -23.36,0 -40.35,-13.63 -50.91,-40.92 -10.57,-27.27 -15.04,-63.99 -13.37,-110.2 1.67,-46.18 5.28,-91.81 10.86,-136.9 5.57,-45.08 11.96,-93.5 19.2,-145.26 7.24,-51.75 11.41,-88.21 12.53,-109.35 6.68,-89.06 -44.54,-142.48 -153.61,-160.29 -52.33,-7.79 -79.04,8.35 -80.15,48.43 0,50.07 -7.24,121.59 -21.7,214.53 -14.47,92.94 -32.83,166.7 -55.1,221.23 -23.38,60.11 -50.65,106.87 -81.82,140.24 -31.16,33.4 -62.33,50.09 -93.5,50.09 -42.3,0 -74.29,-21.14 -95.99,-63.43 -21.71,-42.3 -32.57,-96.28 -32.57,-161.95 0,-69.01 10.86,-137.47 32.57,-205.36 21.7,-67.9 54.25,-124.41 97.67,-169.48 43.41,-45.08 92.37,-63.17 146.93,-54.27 15.58,2.22 27.82,-0.27 36.72,-7.5 8.9,-7.24 13.08,-15.88 12.52,-25.89 -0.55,-10.02 -4.73,-17.25 -12.52,-21.7 -33.39,-18.93 -70.12,-28.39 -110.2,-28.39 -125.78,0 -230.96,52.6 -315.55,157.78 -84.6,105.19 -126.89,229.02 -126.89,371.5 0,96.83 24.2,177.25 72.62,241.26 48.43,64 118.84,96.01 211.22,96.01 73.45,0 137.73,-22.82 192.84,-68.47 55.09,-45.63 99.9,-106.29 134.4,-181.98 17.81,174.76 97.41,262.13 238.75,262.13 90.17,0 165.86,-42.3 227.08,-126.89 61.21,-84.6 114.66,-203.14 160.28,-355.63 7.8,-26.71 5.29,-47.59 -7.5,-62.62 -12.81,-15.03 -28.95,-19.76 -48.43,-14.19 -19.47,5.58 -32.55,20.59 -39.23,45.08zm3001.99 649.49c-2.22,-13.36 -12.23,-21.16 -30.04,-23.38 -34.5,-3.33 -63.46,-13.08 -86.82,-29.22 -23.38,-16.14 -44.53,-44.8 -63.45,-85.97 -13.37,-31.17 -25.05,-64.57 -35.06,-100.18 -10.02,-35.62 -17.25,-75.69 -21.72,-120.21 -4.44,-44.54 -8.34,-84.6 -11.68,-120.23 -3.33,-35.62 -4.17,-80.98 -2.5,-136.06 1.66,-55.11 2.77,-97.68 3.35,-127.74 0.55,-30.04 3.88,-75.69 10.01,-136.91 6.11,-61.21 10.02,-102.11 11.68,-122.72 1.67,-20.58 6.13,-61.77 13.37,-123.54 7.24,-61.79 11.41,-96.56 12.52,-104.35 10.01,-89.06 -35.06,-151.94 -135.24,-188.69 -16.7,-5.55 -28.95,-9.45 -36.75,-11.68 -7.79,-2.22 -19.47,-3.88 -35.06,-5.01 -15.58,-1.11 -28.37,2.24 -38.39,10.03 -10.01,7.8 -18.36,20.59 -25.04,38.39 -12.26,32.29 -48.98,157.23 -110.2,374.84 -61.21,217.62 -120.21,396.26 -176.98,535.95 -56.77,139.7 -109.64,209.53 -158.62,209.53 -28.93,0 -47.87,-31.15 -56.78,-93.5 -8.9,-62.32 -9.17,-142.46 -0.82,-240.42 8.35,-97.96 18.65,-197.56 30.89,-298.86 12.23,-101.29 23.38,-200.63 33.39,-298.03 10.02,-97.39 13.92,-167.24 11.68,-209.54 -5.55,-89.05 -60.1,-144.14 -163.62,-165.3 -2.22,0 -5.01,-0.55 -8.35,-1.66 -21.13,-7.8 -44.8,-8.62 -70.96,-2.51 -26.15,6.12 -42.56,24.77 -49.25,55.93 -20.04,105.75 -47.58,219.01 -82.64,339.78 -35.08,120.76 -79.31,246.28 -132.75,376.5 -53.42,130.22 -111.02,247.1 -172.79,350.61 -61.79,103.54 -132.2,188.69 -211.22,255.45 -79.02,66.79 -158.62,100.19 -238.75,100.19 -65.68,0 -121.06,-22.25 -166.13,-66.79 -45.07,-44.52 -67.63,-108.51 -67.63,-192 0,-83.48 24.22,-150.27 72.63,-200.36 48.42,-50.09 99.91,-78.47 154.44,-85.15 17.81,-2.22 30.07,-7.24 36.73,-15.03 6.68,-7.79 8.92,-16.7 6.68,-26.71 -7.79,-18.92 -30.04,-28.38 -66.78,-28.38 -33.4,0 -68.73,4.44 -106.03,13.35 -37.28,8.9 -75.11,23.67 -113.52,44.25 -38.41,20.6 -72.92,45.63 -103.52,75.13 -30.61,29.49 -55.66,67.06 -75.13,112.71 -19.47,45.63 -29.22,95.72 -29.22,150.25 0,105.75 41.74,191.75 125.23,257.96 83.48,66.23 183.64,99.36 300.52,99.36 103.51,0 202.58,-31.17 297.19,-93.5 94.61,-62.35 178.65,-147.76 252.12,-256.29 73.47,-108.53 138.02,-224.86 193.68,-348.95 55.65,-124.12 105.18,-258.52 148.59,-403.22 -4.44,67.9 -7.51,123.54 -9.17,166.95 -1.67,43.41 -3.35,97.41 -5.02,161.95 -1.67,64.57 -1.11,117.73 1.67,159.47 2.79,41.74 6.68,88.21 11.7,139.41 4.99,51.2 13.34,92.95 25.04,125.21 11.68,32.28 25.6,62.9 41.74,91.83 16.15,28.95 36.73,50.38 61.77,64.28 25.05,13.92 53.16,20.87 84.31,20.87 50.09,0 91.83,-14.45 125.23,-43.41 37.85,-32.28 73.18,-74.58 106.02,-126.89 32.84,-52.31 64.28,-118.25 94.34,-197.85 30.04,-79.58 53.98,-146.08 71.79,-199.52 17.8,-53.42 41.18,-129.67 70.14,-228.74 -16.7,253.78 4.44,478.08 63.43,672.87 27.82,93.5 68.74,167.53 122.72,222.06 53.98,54.53 119.39,81.82 196.19,81.82 75.69,0 111.3,-16.14 106.84,-48.43zm868.2 -649.49c-35.61,117.99 -89.59,211.22 -161.95,279.67 -72.34,68.46 -156.38,102.67 -252.1,102.67 -69.03,0 -125.23,-20.31 -168.63,-60.93 -43.43,-40.63 -72.92,-92.67 -88.51,-156.11 11.13,1.11 26.72,1.67 46.76,1.67 122.43,0 226.23,-26.45 311.38,-79.31 85.16,-52.87 129.96,-120.5 134.4,-202.85 3.35,-64.57 -23.93,-122.17 -81.8,-172.81 -57.88,-50.65 -136.35,-75.98 -235.42,-75.98 -135.79,0 -241.55,44.25 -317.24,132.73 -75.69,88.5 -113.53,195.63 -113.53,321.42 0,52.31 8.91,102.4 26.71,150.27 17.81,47.85 43.97,92.1 78.47,132.73 34.53,40.63 81.55,72.9 141.1,96.83 59.55,23.94 127.16,35.9 202.85,35.9 134.69,0 252.39,-40.63 353.13,-121.87 100.73,-81.27 173.92,-198.7 219.57,-352.3 7.79,-26.71 5.28,-47.59 -7.53,-62.62 -12.79,-15.03 -28.93,-19.76 -48.42,-14.19 -19.48,5.58 -32.56,20.59 -39.24,45.08zm-500.89 -288.85c44.54,0 77.09,14.75 97.68,44.25 20.6,29.49 29.22,67.06 25.89,112.71 -4.47,57.88 -32.84,107.69 -85.15,149.43 -52.32,41.74 -117.44,62.61 -195.35,62.61l-25.05 0 0 -16.7c0,-58.99 5.84,-114.37 17.52,-166.12 11.7,-51.76 32.02,-95.74 60.95,-131.91 28.93,-36.17 63.46,-54.27 103.51,-54.27zm1686.33 288.85c-35.61,115.77 -76.8,212.04 -123.56,288.84 -46.74,76.8 -94.61,115.22 -143.57,115.22 -66.79,0 -106.86,-44.52 -120.23,-133.58 -6.66,-50.09 -3.33,-155.27 10.04,-315.56 3.33,-48.98 9.17,-115.48 17.52,-199.52 8.34,-84.04 14.47,-149.16 18.36,-195.34 3.91,-46.21 7.52,-105.76 10.86,-178.65 3.33,-72.92 2.22,-123.27 -3.34,-151.12 -10.03,-87.92 -70.69,-130.22 -182,-126.89 -48.98,3.35 -71.78,23.94 -68.45,61.79 6.68,42.3 6.95,145.81 0.84,310.54 -6.12,164.75 -16.98,311.67 -32.57,440.78 -16.69,131.36 -35.61,222.08 -56.75,272.17 -22.27,59 -49.82,104.62 -82.66,136.91 -32.82,32.28 -65.39,48.4 -97.68,48.4 -42.29,0 -74.29,-21.14 -95.98,-63.43 -21.72,-42.3 -32.57,-96.28 -32.57,-161.95 0,-69.01 10.85,-137.47 32.57,-205.36 21.69,-67.9 54.24,-124.41 97.67,-169.48 43.41,-45.08 92.37,-63.17 146.92,-54.27 18.92,3.35 32.84,1.11 41.74,-6.68 8.91,-7.79 12.24,-16.7 10.02,-26.71 -2.22,-10.02 -7.24,-17.25 -15.03,-21.7 -36.73,-18.93 -73.45,-28.39 -110.2,-28.39 -66.79,0 -128.82,16.14 -186.15,48.42 -57.33,32.29 -104.36,74.03 -141.08,125.23 -36.75,51.2 -65.13,107.69 -85.15,169.46 -20.05,61.79 -30.07,123.83 -30.07,186.17 0,96.83 24.2,177.25 72.63,241.26 48.43,64 118.83,96.01 211.22,96.01 79.02,0 146.92,-25.89 203.69,-77.64 56.76,-51.76 101.3,-120.5 133.56,-206.21 34.5,197.02 136.91,295.53 307.23,295.53 90.14,0 165.84,-42.3 227.05,-126.89 61.24,-84.6 114.66,-203.14 160.29,-355.63 7.79,-26.71 5.28,-47.59 -7.51,-62.62 -12.81,-15.03 -28.95,-19.76 -48.42,-14.19 -19.48,5.58 -32.55,20.59 -39.24,45.08zm151.94 -405.72c43.41,0 79.31,-13.08 107.69,-39.24 28.39,-26.15 43.69,-58.71 45.91,-97.67 2.25,-36.73 -10.85,-68.45 -39.23,-95.17 -28.38,-26.71 -63.17,-40.07 -104.36,-40.07 -45.62,0 -82.35,12.81 -110.19,38.41 -27.82,25.6 -42.85,57.88 -45.07,96.83 -2.23,37.85 10.85,70.14 39.23,96.85 28.38,26.71 63.72,40.06 106.02,40.06zm-68.45 839.82c51.2,56.77 119.1,85.17 203.69,85.17 57.89,0 110.2,-13.08 156.96,-39.26 46.74,-26.15 87.37,-62.88 121.87,-110.19 34.51,-47.3 63.73,-98.23 87.66,-152.76 23.94,-54.55 45.92,-116.32 65.95,-185.33 7.79,-26.71 5.28,-47.59 -7.51,-62.62 -12.81,-15.03 -28.66,-19.76 -47.58,-14.19 -18.94,5.58 -32.29,20.59 -40.08,45.08 -81.26,270.48 -178.09,405.72 -290.51,405.72 -35.63,0 -62.34,-18.36 -80.15,-55.09 -11.13,-24.49 -18.08,-58.17 -20.87,-101.02 -2.78,-42.85 -3.33,-80.13 -1.67,-111.86 1.67,-31.73 5.84,-81.82 12.52,-150.27 6.69,-68.46 11.13,-114.37 13.37,-137.73 7.77,-96.85 -42.87,-149.17 -151.94,-156.96 -54.55,-3.33 -84.04,20.03 -88.5,70.12 -35.61,360.65 -13.35,584.37 66.79,671.19zm1726.4 -434.1c-35.61,115.77 -76.8,212.04 -123.56,288.84 -46.74,76.8 -94.61,115.22 -143.57,115.22 -66.79,0 -106.86,-44.52 -120.23,-133.58 -6.66,-50.09 -3.33,-155.27 10.04,-315.56 3.33,-48.98 9.17,-115.48 17.52,-199.52 8.34,-84.04 14.47,-149.16 18.36,-195.34 3.91,-46.21 7.52,-105.76 10.86,-178.65 3.33,-72.92 2.22,-123.27 -3.34,-151.12 -10.03,-87.92 -70.69,-130.22 -182,-126.89 -48.98,3.35 -71.78,23.94 -68.45,61.79 6.68,42.3 6.95,145.81 0.84,310.54 -6.12,164.75 -16.98,311.67 -32.57,440.78 -16.69,131.36 -35.61,222.08 -56.75,272.17 -22.27,59 -49.82,104.62 -82.66,136.91 -32.82,32.28 -65.39,48.4 -97.68,48.4 -42.29,0 -74.29,-21.14 -95.98,-63.43 -21.72,-42.3 -32.57,-96.28 -32.57,-161.95 0,-69.01 10.85,-137.47 32.57,-205.36 21.69,-67.9 54.24,-124.41 97.67,-169.48 43.41,-45.08 92.37,-63.17 146.92,-54.27 18.92,3.35 32.84,1.11 41.74,-6.68 8.91,-7.79 12.24,-16.7 10.02,-26.71 -2.22,-10.02 -7.24,-17.25 -15.03,-21.7 -36.73,-18.93 -73.45,-28.39 -110.2,-28.39 -66.79,0 -128.83,16.14 -186.15,48.42 -57.33,32.29 -104.36,74.03 -141.08,125.23 -36.75,51.2 -65.13,107.69 -85.16,169.46 -20.04,61.79 -30.06,123.83 -30.06,186.17 0,96.83 24.2,177.25 72.63,241.26 48.42,64 118.83,96.01 211.22,96.01 79.02,0 146.92,-25.89 203.69,-77.64 56.76,-51.76 101.3,-120.5 133.56,-206.21 34.5,197.02 136.91,295.53 307.23,295.53 90.14,0 165.84,-42.3 227.05,-126.89 61.24,-84.6 114.66,-203.14 160.29,-355.63 7.79,-26.71 5.28,-47.59 -7.51,-62.62 -12.81,-15.03 -28.95,-19.76 -48.42,-14.19 -19.48,5.58 -32.55,20.59 -39.24,45.08zm1106.98 0c-35.62,115.77 -76.81,211.77 -123.57,288.02 -46.73,76.25 -94.6,114.37 -143.58,114.37 -23.36,0 -40.35,-13.63 -50.92,-40.92 -10.57,-27.27 -15.03,-63.99 -13.36,-110.2 1.66,-46.18 5.28,-91.81 10.85,-136.9 5.58,-45.08 11.97,-93.5 19.21,-145.26 7.24,-51.75 11.41,-88.21 12.52,-109.35 6.68,-89.06 -44.54,-142.48 -153.6,-160.29 -52.33,-7.79 -79.05,8.35 -80.16,48.43 0,50.07 -7.23,121.59 -21.69,214.53 -14.48,92.94 -32.84,166.7 -55.11,221.23 -23.38,60.11 -50.64,106.87 -81.82,140.24 -31.15,33.4 -62.32,50.09 -93.49,50.09 -42.3,0 -74.3,-21.14 -95.99,-63.43 -21.72,-42.3 -32.57,-96.28 -32.57,-161.95 0,-69.01 10.85,-137.47 32.57,-205.36 21.69,-67.9 54.24,-124.41 97.67,-169.48 43.41,-45.08 92.37,-63.17 146.92,-54.27 15.59,2.22 27.82,-0.27 36.73,-7.5 8.9,-7.24 13.07,-15.88 12.52,-25.89 -0.56,-10.02 -4.73,-17.25 -12.52,-21.7 -33.4,-18.93 -70.12,-28.39 -110.2,-28.39 -125.78,0 -230.96,52.6 -315.55,157.78 -84.6,105.19 -126.9,229.02 -126.9,371.5 0,96.83 24.21,177.25 72.63,241.26 48.43,64 118.83,96.01 211.22,96.01 73.45,0 137.73,-22.82 192.84,-68.47 55.09,-45.63 99.89,-106.29 134.4,-181.98 17.8,174.76 97.4,262.13 238.75,262.13 90.17,0 165.86,-42.3 227.07,-126.89 61.22,-84.6 114.66,-203.14 160.29,-355.63 7.79,-26.71 5.29,-47.59 -7.5,-62.62 -12.82,-15.03 -28.96,-19.76 -48.43,-14.19 -19.47,5.58 -32.55,20.59 -39.23,45.08z"/>
   <path class="fil0" d="M8149.71 8379.22c11.22,-129.2 55.48,-117.87 160.44,-153.12l-43.89 194.17 -116.55 -41.05zm2890.53 1473.01c-18.75,17.55 -27.24,20.15 -46.69,35.71 -17.7,14.16 -29.66,26.52 -46.65,39.35 -32.73,24.73 -60.27,31.8 -91.26,65.46 -60.28,23.58 -292.86,177.74 -340.72,158.16 -29.98,-12.26 -124.25,-94.85 -143.14,-113.7 -221.81,-221.4 -423.22,-540.38 -457.32,-891.58 -18.85,-194.08 0.53,-341.16 79.7,-475.14 49.81,-84.31 155.91,-203.08 293.23,-221.38 376.56,-50.17 309.57,518.46 378.04,690.63 46.94,-54.2 143.61,-252.79 297.23,-393.37 117.8,-107.8 364.47,-139.3 469.98,-11.68 186.25,225.3 -30.01,703.37 -189.15,905.04 -74.64,94.6 -122.88,135.63 -203.25,212.5zm553.63 -1060.6c-118.59,-390.3 -579.75,-334.93 -790.11,-57.14 -28.17,37.2 -46.44,87.85 -81.58,120.93 -10.27,-186.41 -29.37,-271.61 -107.96,-391.16 -57.22,-87.04 -183.61,-165.4 -327.53,-149.56 -223.73,24.63 -427.54,263.87 -469.33,501.1 -75.45,428.4 102.85,854.75 331.54,1142.56 149.11,187.65 130.98,134.9 241.19,251.07 -58.55,43.87 -358.83,133.36 -456.57,171.67 -148.62,58.25 -323.33,127.1 -491.98,140.4 -361.73,28.54 -621.93,-275.77 -543.45,-758.05 62.88,-386.42 465.38,-1243.94 -20.4,-1615.1 -157.1,-120.04 -324.1,-75.23 -498.86,-32.82 4.26,-114.8 -22.75,-320.79 -132.02,-188.05 -59.08,71.75 -90.19,173.66 -112.41,294.63 -121.62,56.25 -293.61,92.31 -433.22,114.53 -76.8,12.23 -460.42,38.52 -489.01,54.47 83.52,36.04 371.98,6.66 475.94,-3.45 75.18,-7.31 147.96,-18.13 219.68,-32.78 69.16,-14.13 142.82,-43.6 208.25,-51.54 -25.43,167.21 -75.46,374.92 -112.34,546.15l-566.76 2734.18c-34.14,167.36 -217.74,1005.47 -220.96,1093.14l1005.28 -3913.15c41.86,-174.39 115.77,-398.03 142.23,-565.37 174.68,-50.42 391.83,-76.43 515.68,56.24 114.63,122.77 179.7,344.75 151.07,585.48 -57.43,483.01 -531.44,1306.58 40.38,1705.09 311.81,217.31 717.72,22.82 1053.8,-101.8 81.62,-30.26 162.05,-55.42 246.52,-87.25 199.05,-75.01 126.68,-61.66 240.9,-22.88 240.39,81.61 624.2,30.63 777.64,224.15 63.16,79.67 59.89,165 84.29,290.19 101.5,520.81 504.58,394.17 880.3,272.94 563.73,-181.89 577.35,-22.08 948.82,253.79 142.83,106.07 331.9,129.53 517.34,153.86 170.42,22.35 454.34,38.17 534.88,-106.08 -94.91,56.73 -114.8,74.55 -245.69,78.79 -235.11,7.62 -607.07,-62.41 -789.06,-195.73 -346.77,-254.03 -375.13,-458.43 -919.6,-295.15 -144.01,43.19 -385.71,126.9 -541.4,117.61 -480.28,-28.69 -103.65,-611.37 -612.35,-792.41 -184.23,-65.56 -389.15,-48.61 -559.76,-107.17 384.29,-263.58 1121.15,-730.28 906.62,-1436.33zm-3405.34 -592.86c21.01,-83.59 46.31,-160.33 112.48,-178.49 14.3,43.85 16.69,64.27 15.67,123.04l-128.15 55.45z"/>
  </g>
 </g>
</svg>
