<svg width="127" height="53" viewBox="0 0 127 53" fill="none" xmlns="http://www.w3.org/2000/svg">
<path d="M89.7414 31.3471L88.4022 31.3495L86.6278 27.7397H80.8802L79.1029 31.3447L77.7804 31.3471L83.0872 20.583H84.4513L88.1112 28.0306L89.7414 31.3471ZM86.1509 26.7651L83.7692 21.8097L81.3792 26.7651H86.1509ZM95.5307 21.5576H92.7359V31.3471H91.5048V21.5576H88.6768V20.583H95.5307V21.5576ZM103.632 31.3471H96.9114V20.583H103.632V21.5576H98.1425V25.4414H103.449V26.416H98.1425V30.3725H103.632V31.3471ZM112.15 31.3471H105.828V20.583H107.059V30.3725H112.15V31.3471ZM114.745 31.3471H113.514V20.583H114.745V31.3471ZM123.994 31.3471H117.274V20.583H123.994V21.5576H118.505V25.4414H123.811V26.416H118.505V30.3725H123.994V31.3471ZM123.578 20.0884L122.037 20.1006L120.615 19.0169L119.153 20.0884H117.656L120.068 18.2556H121.133L123.578 20.0884Z" fill="#D94167"/>
<path d="M21.2344 35.9847C20.1979 35.9185 19.547 36.3108 19.2816 37.1618C19.1299 37.6591 19.0319 38.3913 18.9877 39.3583C18.9434 40.3254 18.9276 41.5798 18.9403 43.1215C18.9529 44.6632 18.9529 45.6717 18.9403 46.1469C18.915 47.1748 18.8454 47.8849 18.7317 48.2772C18.6179 48.6695 18.4031 48.8657 18.0871 48.8657C17.67 48.8657 17.1613 48.0727 16.5609 46.4868C15.9605 44.9008 15.3538 43.0662 14.7408 40.983C14.1278 38.8997 13.7075 37.6094 13.48 37.1121C13.1134 36.2942 12.3298 35.9461 11.1291 36.0677C10.8889 36.1118 10.7625 36.1339 10.7499 36.1339C10.1558 36.2556 9.88406 36.5373 9.93465 36.9794C10.061 37.742 10.1305 38.5985 10.1432 39.549C10.1558 40.4994 10.1148 41.4886 10.0199 42.5164C9.92517 43.5443 9.74819 44.5417 9.48913 45.5087C9.22999 46.4757 8.91087 47.3433 8.53168 48.1114C8.15249 48.8795 7.66272 49.4984 7.06231 49.9681C6.46196 50.4378 5.79521 50.6727 5.06212 50.6727C4.31636 50.6727 3.70967 50.4572 3.24206 50.0262C2.77438 49.5951 2.54054 48.9651 2.54054 48.1362C2.54054 47.3074 2.79647 46.6443 3.30839 46.1469C3.82031 45.6496 4.37956 45.3678 4.98624 45.3015C5.18852 45.2794 5.32753 45.2296 5.4034 45.1523C5.47922 45.0749 5.50451 44.9865 5.47922 44.887C5.39073 44.6992 5.13793 44.6052 4.72084 44.6052C4.34165 44.6052 3.94665 44.6494 3.53589 44.7379C3.12514 44.8263 2.70484 44.9727 2.27513 45.1771C1.84536 45.3816 1.46617 45.6302 1.13757 45.9232C0.808896 46.216 0.537151 46.589 0.32233 47.0421C0.107443 47.4952 0 47.9926 0 48.5342C0 49.5841 0.445524 50.4378 1.33664 51.0954C2.22768 51.753 3.29891 52.0818 4.5502 52.0818C5.54875 52.0818 6.45248 51.8663 7.26138 51.4353C8.07034 51.0042 8.7465 50.4296 9.28999 49.7112C9.83354 48.9928 10.2917 48.1473 10.6646 47.1748C11.0374 46.2022 11.306 45.191 11.4704 44.141C11.6347 43.0911 11.7168 41.997 11.7168 40.8586C11.9064 41.4775 12.0486 41.9334 12.1434 42.2263C12.2382 42.5192 12.3836 42.9668 12.5794 43.5691C12.7754 44.1714 12.9365 44.6356 13.0629 44.9616C13.1893 45.2876 13.3568 45.7104 13.5653 46.2298C13.7739 46.7493 13.9603 47.1582 14.1246 47.4566C14.2889 47.755 14.4848 48.1031 14.7123 48.501C14.9398 48.8989 15.1579 49.2083 15.3665 49.4293C15.575 49.6504 15.8025 49.8714 16.049 50.0925C16.2954 50.3135 16.5546 50.471 16.8263 50.5649C17.0981 50.6589 17.373 50.7059 17.651 50.7059C18.6243 50.7059 19.31 50.3549 19.7081 49.6531C20.1063 48.9514 20.3938 47.8213 20.5708 46.263C20.6592 45.5446 20.7193 44.5002 20.7509 43.1298C20.7825 41.7594 20.8741 40.6266 21.0258 39.7313C21.1774 38.8361 21.4619 38.0294 21.879 37.311C22.3466 36.4932 22.1318 36.0511 21.2344 35.9847ZM35.0935 44.9036C34.6891 46.053 34.2214 47.0062 33.6905 47.7633C33.1597 48.5203 32.6162 48.8988 32.0601 48.8988C31.7947 48.8988 31.6019 48.7635 31.4818 48.4927C31.3617 48.2219 31.3112 47.8572 31.3301 47.3985C31.3491 46.9399 31.3902 46.4868 31.4534 46.0392C31.5166 45.5916 31.5892 45.1108 31.6714 44.5969C31.7535 44.083 31.8009 43.7211 31.8136 43.5111C31.8894 42.627 31.308 42.0964 30.0694 41.9196C29.4753 41.8422 29.1719 42.0025 29.1593 42.4004C29.1593 42.8977 29.0771 43.6078 28.9128 44.5306C28.7485 45.4534 28.54 46.1856 28.2872 46.7271C28.0217 47.324 27.7121 47.7881 27.3582 48.1197C27.0043 48.4512 26.6504 48.617 26.2964 48.617C25.8161 48.617 25.4528 48.4071 25.2063 47.9871C24.9598 47.5671 24.8366 47.0311 24.8366 46.379C24.8366 45.6938 24.9598 45.0141 25.2063 44.3399C25.4528 43.6658 25.8225 43.1049 26.3154 42.6573C26.8083 42.2097 27.3645 42.0301 27.9838 42.1185C28.1608 42.1406 28.2998 42.1158 28.4009 42.0439C28.502 41.9721 28.5495 41.8865 28.5431 41.787C28.5368 41.6875 28.4894 41.6157 28.4009 41.5715C28.0217 41.3836 27.6046 41.2896 27.1496 41.2896C25.7214 41.2896 24.5269 41.8118 23.5663 42.8563C22.6057 43.9007 22.1254 45.1302 22.1254 46.5448C22.1254 47.5063 22.4003 48.3048 22.9501 48.9403C23.5 49.5758 24.2994 49.8935 25.3485 49.8935C26.1827 49.8935 26.9127 49.6669 27.5383 49.2138C28.1639 48.7607 28.6727 48.1584 29.0645 47.4068C29.2667 49.142 30.1705 50.0095 31.7756 50.0095C32.7995 50.0095 33.659 49.5896 34.3541 48.7496C35.0493 47.9097 35.656 46.7327 36.1742 45.2186C36.2627 44.9533 36.2343 44.7461 36.0889 44.5969C35.9435 44.4477 35.7603 44.4007 35.5391 44.456C35.3179 44.5113 35.1694 44.6605 35.0935 44.9036ZM69.1822 51.3523C69.157 51.2198 69.0432 51.1424 68.841 51.1203C68.4491 51.0871 68.1205 50.9904 67.8551 50.8301C67.5896 50.6699 67.3495 50.3853 67.1346 49.9764C66.9829 49.6669 66.8502 49.3354 66.7365 48.9817C66.6227 48.6281 66.5405 48.2302 66.49 47.7881C66.4394 47.3461 66.3952 46.9482 66.3573 46.5945C66.3194 46.2409 66.3099 45.7905 66.3288 45.2435C66.3478 44.6964 66.3604 44.2737 66.3668 43.9752C66.3731 43.6768 66.411 43.2237 66.4805 42.6159C66.55 42.008 66.5943 41.6019 66.6132 41.3974C66.6322 41.1929 66.6827 40.784 66.7649 40.1707C66.847 39.5573 66.8944 39.2119 66.9071 39.1346C67.0208 38.2504 66.509 37.626 65.3714 37.2613C65.1818 37.206 65.0428 37.1673 64.9543 37.1452C64.8658 37.1231 64.7331 37.1065 64.5562 37.0955C64.3792 37.0844 64.2338 37.1176 64.1201 37.1949C64.0063 37.2723 63.9115 37.3994 63.8357 37.5762C63.6967 37.8967 63.2796 39.1373 62.5844 41.2979C61.8892 43.4586 61.2193 45.2324 60.5747 46.6194C59.9301 48.0064 59.3297 48.6999 58.7736 48.6999C58.445 48.6999 58.2301 48.3905 58.129 47.7715C58.0279 47.1527 58.0247 46.3569 58.1195 45.3843C58.2143 44.4118 58.3312 43.4226 58.4703 42.4169C58.6093 41.4112 58.7357 40.4248 58.8495 39.4578C58.9632 38.4907 59.0074 37.7973 58.9821 37.3773C58.9189 36.4932 58.2996 35.9461 57.1241 35.7361C57.0989 35.7361 57.0672 35.7306 57.0293 35.7195C56.7892 35.6422 56.5206 35.6339 56.2236 35.6947C55.9265 35.7554 55.7401 35.9406 55.6643 36.25C55.4368 37.3 55.1239 38.4245 54.7258 39.6236C54.3276 40.8227 53.8252 42.0688 53.2185 43.3619C52.6119 44.6549 51.9577 45.8154 51.2563 46.8432C50.5547 47.871 49.7553 48.7165 48.8579 49.3796C47.9605 50.0427 47.0568 50.3743 46.1468 50.3743C45.401 50.3743 44.7722 50.1533 44.2603 49.7112C43.7484 49.2691 43.4924 48.6336 43.4924 47.8047C43.4924 46.9758 43.7673 46.3127 44.3172 45.8154C44.867 45.318 45.4516 45.0362 46.0709 44.9699C46.2732 44.9478 46.4122 44.8981 46.488 44.8207C46.5639 44.7433 46.5891 44.6549 46.5639 44.5555C46.4754 44.3676 46.2226 44.2737 45.8055 44.2737C45.4263 44.2737 45.0249 44.3178 44.6016 44.4063C44.1781 44.4947 43.7484 44.6411 43.3123 44.8456C42.8763 45.05 42.4844 45.2987 42.1369 45.5916C41.7893 45.8845 41.5049 46.2575 41.2837 46.7106C41.0625 47.1637 40.9519 47.661 40.9519 48.2026C40.9519 49.2525 41.4259 50.1063 42.3738 50.7639C43.3218 51.4214 44.4594 51.7502 45.7865 51.7502C46.962 51.7502 48.0869 51.4407 49.1613 50.8219C50.2356 50.203 51.1899 49.3548 52.0241 48.2772C52.8583 47.1996 53.5914 46.0447 54.2234 44.8124C54.8554 43.5801 55.4178 42.2456 55.9108 40.8089C55.8602 41.4831 55.8254 42.0357 55.8065 42.4667C55.7875 42.8977 55.7686 43.4337 55.7496 44.0747C55.7307 44.7157 55.7369 45.2435 55.7686 45.6579C55.8001 46.0723 55.8444 46.5338 55.9012 47.0421C55.9582 47.5505 56.0529 47.965 56.1856 48.2854C56.3184 48.606 56.4764 48.9099 56.6596 49.1973C56.8429 49.4846 57.0767 49.6973 57.3611 49.8355C57.6455 49.9736 57.9647 50.0427 58.3186 50.0427C58.8874 50.0427 59.3613 49.899 59.7405 49.6117C60.1703 49.2912 60.5716 48.8712 60.9444 48.3518C61.3172 47.8323 61.6744 47.1775 62.0156 46.3873C62.3568 45.5971 62.6287 44.9368 62.8309 44.4063C63.0331 43.8758 63.2985 43.1187 63.6272 42.1351C63.4376 44.6549 63.6777 46.8819 64.3476 48.8159C64.6636 49.7443 65.1281 50.4793 65.7411 51.0208C66.3541 51.5624 67.0967 51.8331 67.9688 51.8331C68.8283 51.8331 69.2328 51.6729 69.1822 51.3523ZM79.041 44.9036C78.6365 46.0751 78.0235 47.0007 77.2019 47.6804C76.3804 48.3601 75.4261 48.6999 74.3391 48.6999C73.5555 48.6999 72.9172 48.4982 72.4242 48.0948C71.9313 47.6914 71.5963 47.1748 71.4194 46.5448C71.5458 46.5559 71.7227 46.5614 71.9503 46.5614C73.3406 46.5614 74.5192 46.2989 75.4862 45.774C76.4531 45.249 76.9618 44.5776 77.0123 43.7597C77.0503 43.1187 76.7406 42.5468 76.0834 42.0439C75.4261 41.5411 74.535 41.2896 73.4101 41.2896C71.8681 41.2896 70.6674 41.729 69.8079 42.6076C68.9484 43.4862 68.5186 44.55 68.5186 45.7988C68.5186 46.3183 68.6197 46.8155 68.822 47.2908C69.0242 47.7661 69.3213 48.2053 69.7131 48.6087C70.1049 49.0121 70.6389 49.3326 71.3151 49.5703C71.9913 49.8079 72.7592 49.9267 73.6187 49.9267C75.148 49.9267 76.4847 49.5233 77.6286 48.7165C78.7724 47.9097 79.6035 46.7437 80.1217 45.2186C80.2101 44.9533 80.1817 44.7461 80.0364 44.5969C79.891 44.4477 79.7078 44.4007 79.4865 44.456C79.2654 44.5113 79.1168 44.6605 79.041 44.9036ZM73.3532 42.0357C73.8588 42.0357 74.2285 42.1821 74.4623 42.4749C74.6962 42.7678 74.7941 43.1409 74.7562 43.594C74.7056 44.1687 74.3834 44.6632 73.7893 45.0777C73.1952 45.4921 72.4559 45.6993 71.5711 45.6993H71.2867V45.5335C71.2867 44.9478 71.3531 44.398 71.4857 43.8841C71.6185 43.3702 71.8491 42.9336 72.1778 42.5744C72.5064 42.2153 72.8982 42.0357 73.3532 42.0357ZM92.5021 44.9036C92.0976 46.053 91.63 47.009 91.0991 47.7715C90.5682 48.5341 90.0247 48.9154 89.4686 48.9154C88.7103 48.9154 88.2552 48.4733 88.1035 47.5892C88.0277 47.0918 88.0656 46.0475 88.2173 44.456C88.2552 43.9697 88.3216 43.3094 88.4164 42.4749C88.5112 41.6406 88.5807 40.994 88.6249 40.5354C88.6692 40.0767 88.7103 39.4854 88.7482 38.7616C88.7861 38.0376 88.7735 37.5376 88.7103 37.2613C88.5965 36.3881 87.9076 35.9682 86.6437 36.0013C86.0875 36.0345 85.8284 36.239 85.8663 36.6147C85.9422 37.0347 85.9454 38.0625 85.8758 39.6982C85.8063 41.3339 85.6831 42.7927 85.5061 44.0747C85.3165 45.3789 85.1016 46.2796 84.8615 46.7769C84.6087 47.3627 84.2959 47.8158 83.923 48.1362C83.5502 48.4568 83.1805 48.617 82.8139 48.617C82.3336 48.617 81.9702 48.4071 81.7238 47.9871C81.4773 47.5671 81.354 47.0311 81.354 46.379C81.354 45.6938 81.4773 45.0141 81.7238 44.3399C81.9702 43.6658 82.3399 43.1049 82.8328 42.6573C83.3258 42.2097 83.882 42.0301 84.5013 42.1185C84.7162 42.1517 84.8741 42.1296 84.9752 42.0522C85.0764 41.9749 85.1143 41.8865 85.089 41.787C85.0637 41.6875 85.0069 41.6157 84.9184 41.5715C84.5013 41.3836 84.0842 41.2896 83.6671 41.2896C82.9087 41.2896 82.204 41.4499 81.5531 41.7704C80.9022 42.0909 80.3682 42.5053 79.9511 43.0138C79.534 43.5221 79.2117 44.083 78.9842 44.6964C78.7567 45.3098 78.6429 45.9259 78.6429 46.5448C78.6429 47.5063 78.9178 48.3048 79.4676 48.9403C80.0174 49.5758 80.8169 49.8935 81.866 49.8935C82.7634 49.8935 83.5343 49.6365 84.1789 49.1226C84.8236 48.6087 85.3292 47.9263 85.6957 47.0753C86.0875 49.0315 87.2504 50.0095 89.1842 50.0095C90.208 50.0095 91.0675 49.5896 91.7627 48.7496C92.4578 47.9097 93.0645 46.7327 93.5827 45.2186C93.6712 44.9533 93.6428 44.7461 93.4974 44.5969C93.3521 44.4477 93.1688 44.4007 92.9476 44.456C92.7264 44.5113 92.5779 44.6605 92.5021 44.9036ZM94.2274 40.8752C94.7203 40.8752 95.128 40.7454 95.4502 40.4856C95.7726 40.2259 95.9463 39.9026 95.9716 39.5158C95.9969 39.1511 95.8484 38.8361 95.5261 38.5709C95.2038 38.3057 94.8088 38.173 94.3412 38.173C93.8229 38.173 93.4058 38.3001 93.0898 38.5543C92.7738 38.8085 92.6032 39.129 92.5779 39.5158C92.5527 39.8916 92.7011 40.2121 93.0235 40.4774C93.3457 40.7426 93.7471 40.8752 94.2274 40.8752ZM93.4501 49.2138C94.0314 49.7775 94.8025 50.0593 95.7631 50.0593C96.4203 50.0593 97.0144 49.9294 97.5452 49.6697C98.0761 49.41 98.5375 49.0453 98.9293 48.5756C99.3211 48.1059 99.6529 47.6003 99.9246 47.0587C100.196 46.5172 100.446 45.9038 100.674 45.2186C100.762 44.9533 100.734 44.7461 100.588 44.5969C100.443 44.4477 100.263 44.4007 100.048 44.456C99.833 44.5113 99.6813 44.6605 99.5928 44.9036C98.6701 47.5892 97.5705 48.932 96.2939 48.932C95.8895 48.932 95.5861 48.7496 95.3839 48.3849C95.2575 48.1418 95.1785 47.8075 95.1469 47.382C95.1153 46.9565 95.1089 46.5862 95.128 46.2713C95.1469 45.9563 95.1943 45.459 95.2701 44.7793C95.346 44.0996 95.3965 43.6437 95.4218 43.4116C95.5103 42.4501 94.9352 41.9307 93.6965 41.8533C93.0772 41.8202 92.7423 42.0522 92.6917 42.5496C92.2872 46.1304 92.54 48.3518 93.4501 49.2138ZM113.054 44.9036C112.649 46.053 112.182 47.009 111.651 47.7715C111.12 48.5341 110.577 48.9154 110.02 48.9154C109.262 48.9154 108.807 48.4733 108.655 47.5892C108.579 47.0918 108.617 46.0475 108.769 44.456C108.807 43.9697 108.873 43.3094 108.968 42.4749C109.063 41.6406 109.132 40.994 109.177 40.5354C109.221 40.0767 109.262 39.4854 109.3 38.7616C109.338 38.0376 109.325 37.5376 109.262 37.2613C109.148 36.3881 108.459 35.9682 107.195 36.0013C106.639 36.0345 106.38 36.239 106.418 36.6147C106.494 37.0347 106.497 38.0625 106.428 39.6982C106.358 41.3339 106.235 42.7927 106.058 44.0747C105.868 45.3789 105.653 46.2796 105.413 46.7769C105.161 47.3627 104.848 47.8158 104.475 48.1362C104.102 48.4568 103.732 48.617 103.366 48.617C102.885 48.617 102.522 48.4071 102.276 47.9871C102.029 47.5671 101.906 47.0311 101.906 46.379C101.906 45.6938 102.029 45.0141 102.276 44.3399C102.522 43.6658 102.892 43.1049 103.385 42.6573C103.878 42.2097 104.434 42.0301 105.053 42.1185C105.268 42.1517 105.426 42.1296 105.527 42.0522C105.628 41.9749 105.666 41.8865 105.641 41.787C105.616 41.6875 105.559 41.6157 105.47 41.5715C105.053 41.3836 104.636 41.2896 104.219 41.2896C103.461 41.2896 102.756 41.4499 102.105 41.7704C101.454 42.0909 100.92 42.5053 100.503 43.0138C100.086 43.5221 99.7635 44.083 99.5359 44.6964C99.3084 45.3098 99.1947 45.9259 99.1947 46.5448C99.1947 47.5063 99.4696 48.3048 100.019 48.9403C100.569 49.5758 101.369 49.8935 102.418 49.8935C103.315 49.8935 104.086 49.6365 104.731 49.1226C105.375 48.6087 105.881 47.9263 106.247 47.0753C106.639 49.0315 107.802 50.0095 109.736 50.0095C110.76 50.0095 111.619 49.5896 112.314 48.7496C113.01 47.9097 113.616 46.7327 114.135 45.2186C114.223 44.9533 114.195 44.7461 114.049 44.5969C113.904 44.4477 113.721 44.4007 113.499 44.456C113.278 44.5113 113.13 44.6605 113.054 44.9036ZM125.624 44.9036C125.219 46.053 124.752 47.0062 124.221 47.7633C123.69 48.5203 123.146 48.8988 122.59 48.8988C122.325 48.8988 122.132 48.7635 122.012 48.4927C121.892 48.2219 121.841 47.8572 121.86 47.3985C121.879 46.9399 121.92 46.4868 121.984 46.0392C122.047 45.5916 122.12 45.1108 122.202 44.5969C122.284 44.083 122.331 43.7211 122.344 43.5111C122.42 42.627 121.838 42.0964 120.6 41.9196C120.006 41.8422 119.702 42.0025 119.69 42.4004C119.69 42.8977 119.607 43.6078 119.443 44.5306C119.279 45.4534 119.07 46.1856 118.818 46.7271C118.552 47.324 118.242 47.7881 117.888 48.1197C117.535 48.4512 117.181 48.617 116.827 48.617C116.346 48.617 115.983 48.4071 115.737 47.9871C115.49 47.5671 115.367 47.0311 115.367 46.379C115.367 45.6938 115.49 45.0141 115.737 44.3399C115.983 43.6658 116.353 43.1049 116.846 42.6573C117.339 42.2097 117.895 42.0301 118.514 42.1185C118.691 42.1406 118.83 42.1158 118.931 42.0439C119.032 41.9721 119.08 41.8865 119.073 41.787C119.067 41.6875 119.02 41.6157 118.931 41.5715C118.552 41.3836 118.135 41.2896 117.68 41.2896C116.252 41.2896 115.057 41.8118 114.097 42.8563C113.136 43.9007 112.656 45.1302 112.656 46.5448C112.656 47.5063 112.931 48.3048 113.48 48.9403C114.03 49.5758 114.83 49.8935 115.879 49.8935C116.713 49.8935 117.443 49.6669 118.069 49.2138C118.694 48.7607 119.203 48.1584 119.595 47.4068C119.797 49.142 120.701 50.0095 122.306 50.0095C123.33 50.0095 124.189 49.5896 124.884 48.7496C125.58 47.9097 126.186 46.7327 126.705 45.2186C126.793 44.9533 126.765 44.7461 126.619 44.5969C126.474 44.4477 126.291 44.4007 126.069 44.456C125.848 44.5113 125.7 44.6605 125.624 44.9036Z" fill="#D94167"/>
<path fill-rule="evenodd" clip-rule="evenodd" d="M38.0243 4.91299C38.1518 3.63019 38.6543 3.74265 39.8462 3.39269L39.3478 5.3205L38.0243 4.91299ZM70.8474 19.5386C70.6345 19.7128 70.538 19.7386 70.3172 19.8931C70.1163 20.0337 69.9804 20.1564 69.7875 20.2838C69.4159 20.5293 69.1031 20.5996 68.7512 20.9338C68.0667 21.1679 65.4257 22.6985 64.8823 22.5041C64.5418 22.3824 63.4714 21.5624 63.2568 21.3752C60.7381 19.1769 58.451 16.0098 58.0638 12.5227C57.8497 10.5957 58.0698 9.13531 58.9688 7.80496C59.5344 6.96789 60.7392 5.78863 62.2985 5.60691C66.5745 5.10877 65.8139 10.7548 66.5913 12.4642C67.1243 11.9261 68.2221 9.95426 69.9664 8.55848C71.3041 7.48814 74.1052 7.17533 75.3033 8.44248C77.4183 10.6794 74.9624 15.4262 73.1554 17.4287C72.3078 18.3679 71.76 18.7753 70.8474 19.5386ZM77.1341 9.00776C75.7874 5.13249 70.5508 5.68229 68.1621 8.44048C67.8422 8.80981 67.6348 9.31275 67.2357 9.64116C67.1191 7.79027 66.9022 6.94435 66.0097 5.75732C65.36 4.89305 63.9249 4.11507 62.2907 4.27239C59.7501 4.51692 57.4356 6.89229 56.9612 9.24783C56.1044 13.5014 58.1291 17.7347 60.7259 20.5923C62.4191 22.4555 62.2133 21.9318 63.4647 23.0852C62.7999 23.5207 59.3901 24.4093 58.2802 24.7897C56.5926 25.3681 54.6087 26.0517 52.6936 26.1838C48.586 26.4671 45.6313 23.4456 46.5225 18.657C47.2365 14.8202 51.8071 6.30592 46.2909 2.62065C44.5069 1.42877 42.6106 1.87365 40.6261 2.29481C40.6746 1.15493 40.3678 -0.890371 39.127 0.427578C38.4561 1.14007 38.1028 2.15189 37.8505 3.35303C36.4694 3.91157 34.5164 4.26959 32.9311 4.49023C32.0591 4.61161 27.7029 4.87271 27.3783 5.031C28.3266 5.3889 31.6022 5.09717 32.7828 4.99677C33.6364 4.92419 34.4628 4.81676 35.2773 4.67132C36.0626 4.53103 36.8991 4.23839 37.6421 4.15953C37.3532 5.81978 36.7852 7.88216 36.3663 9.58224L29.9305 36.7301C29.5429 38.3918 27.458 46.7135 27.4215 47.5839L38.8368 8.73015C39.3122 6.99858 40.1514 4.77807 40.4519 3.11651C42.4354 2.61591 44.9012 2.35761 46.3077 3.67488C47.6094 4.89396 48.3482 7.09795 48.0232 9.48818C47.371 14.284 41.9884 22.4613 48.4817 26.4181C52.0224 28.5757 56.6316 26.6447 60.4479 25.4073C61.3747 25.1068 62.288 24.857 63.2473 24.541C65.5075 23.7962 64.6858 23.9288 65.9827 24.3138C68.7125 25.1241 73.0708 24.6179 74.8132 26.5395C75.5304 27.3304 75.4932 28.1777 75.7703 29.4207C76.9229 34.5918 81.5 33.3344 85.7664 32.1308C92.1679 30.3248 92.3224 31.9115 96.5407 34.6507C98.1625 35.7038 100.31 35.9367 102.415 36.1783C104.35 36.4002 107.574 36.5573 108.489 35.125C107.411 35.6884 107.185 35.8653 105.699 35.9074C103.029 35.983 98.8056 35.2877 96.739 33.9639C92.8013 31.4417 92.4793 29.4122 86.2966 31.0334C84.6613 31.4622 81.9168 32.2934 80.1488 32.2011C74.6951 31.9163 78.9719 26.1308 73.1954 24.3333C71.1034 23.6823 68.7764 23.8506 66.8391 23.2692C71.2029 20.6521 79.5702 16.0182 77.1341 9.00776ZM38.4652 3.12131C38.7038 2.29132 38.991 1.52934 39.7425 1.34905C39.9048 1.78444 39.9319 1.98714 39.9204 2.57071L38.4652 3.12131Z" fill="#D94167"/>
</svg>
