<svg xmlns="http://www.w3.org/2000/svg" xml:space="preserve" width="210mm" height="210mm" style="shape-rendering:geometricPrecision;text-rendering:geometricPrecision;image-rendering:optimizeQuality;fill-rule:evenodd;clip-rule:evenodd" viewBox="0 0 21000 21000"><defs><style>.fil0{fill:#d94167;fill-rule:nonzero}</style></defs><g id="Camada_x0020_1"><g id="_1927171613248"><path class="fil0" d="m14523.91 11435.66-204.91.42-271.51-631.69h-879.45l-271.94 630.85-202.36.42 812-1883.63h208.72l560 1303.27 249.45 580.36zm-549.39-801.81-364.42-867.15-365.7 867.15h730.12zm1435.21-911.27h-427.63v1713.08h-188.37V9722.58h-432.72v-170.55h1048.72v170.55zm1239.63 1713.08H15621V9552.03h1028.36v170.55h-839.99v679.63h811.99v170.55h-811.99v692.36h839.99v170.54zm1303.27 0h-967.27V9552.03h188.37v1713.09h778.9v170.54zm397.09 0h-188.37V9552.03h188.37v1883.63zm1415.26 0h-1028.36V9552.03h1028.36v170.55h-839.99v679.63h811.99v170.55h-811.99v692.36h839.99v170.54zm-63.63-1970.17-235.88 2.12-217.64-189.63-223.57 187.51h-229.09l369.09-320.73h162.91l374.18 320.73zM4041.59 12247.24c-158.59-11.6-258.19 57.06-298.8 205.97-23.21 87.03-38.2 215.16-44.97 384.38-6.77 169.22-9.19 388.73-7.25 658.52 1.93 269.79 1.93 446.27 0 529.43-3.87 179.86-14.51 304.12-31.91 372.77-17.41 68.66-50.29 102.99-98.63 102.99-63.83 0-141.67-138.77-233.53-416.29-91.87-277.53-184.7-598.57-278.5-963.12-93.79-364.56-158.1-590.35-192.91-677.38-56.09-143.11-175.99-204.03-359.72-182.76-36.75 7.73-56.09 11.6-58.02 11.6-90.9 21.28-132.48 70.59-124.74 147.95 19.34 133.45 29.97 283.33 31.91 449.65 1.93 166.32-4.35 339.42-18.86 519.28-14.5 179.86-41.58 354.4-81.22 523.62-39.65 169.22-88.48 321.04-146.5 455.45-58.02 134.42-132.96 242.72-224.83 324.91-91.86 82.2-193.88 123.29-306.05 123.29-114.11 0-206.94-37.71-278.49-113.13-71.56-75.43-107.34-185.67-107.34-330.72 0-145.04 39.16-261.08 117.49-348.11 78.33-87.03 163.9-136.35 256.73-147.95 30.95-3.87 52.22-12.57 63.83-26.11 11.6-13.54 15.47-29.01 11.6-46.42-13.54-32.87-52.22-49.31-116.04-49.31-58.02 0-118.46 7.73-181.31 23.21-62.85 15.47-127.16 41.09-192.91 76.87-65.76 35.78-123.78 79.29-174.06 130.55-50.29 51.25-91.87 116.52-124.74 195.81-32.88 79.29-49.32 166.32-49.32 261.09 0 183.73 68.17 333.13 204.52 448.2 136.34 115.07 300.25 172.61 491.71 172.61 152.79 0 291.07-37.72 414.84-113.14 123.78-75.43 227.24-175.99 310.4-301.7 83.17-125.71 153.27-273.66 210.33-443.85 57.05-170.19 98.14-347.15 123.29-530.88 25.14-183.73 37.71-375.19 37.71-574.39 29.01 108.3 50.77 188.08 65.27 239.33 14.51 51.25 36.75 129.58 66.72 234.98 29.98 105.4 54.64 186.63 73.98 243.68 19.34 57.05 44.96 131.03 76.87 221.92 31.91 90.9 60.44 162.46 85.58 214.68 25.14 52.21 55.12 113.13 89.93 182.76 34.81 69.62 68.18 123.77 100.09 162.45 31.91 38.68 66.72 77.36 104.43 116.04 37.71 38.68 77.36 66.24 118.94 82.68 41.58 16.44 83.65 24.66 126.19 24.66 148.92 0 253.84-61.41 314.76-184.22 60.92-122.8 104.92-320.55 131.99-593.24 13.54-125.71 22.73-308.47 27.56-548.29 4.84-239.81 18.86-438.04 42.07-594.7 23.2-156.65 66.72-297.83 130.54-423.54 71.56-143.11 38.68-220.47-98.63-232.08zm2120.6 1560.73c-61.88 201.13-133.44 367.94-214.67 500.41-81.22 132.48-164.39 198.72-249.48 198.72-40.61 0-70.11-23.69-88.48-71.07-18.37-47.39-26.11-111.21-23.21-191.47 2.9-80.26 9.19-159.55 18.86-237.88 9.67-78.32 20.79-162.45 33.36-252.38s19.82-153.27 21.76-190.02c11.6-154.71-77.36-247.55-266.89-278.49-90.9-13.54-137.32 14.51-139.25 84.13 0 87.03-12.57 211.29-37.71 372.77-25.14 161.49-57.05 289.62-95.73 384.38-40.62 104.44-88 185.66-142.15 243.68-54.15 58.02-108.3 87.03-162.46 87.03-73.49 0-129.09-36.74-166.8-110.23-37.71-73.5-56.57-167.29-56.57-281.4 0-119.9 18.86-238.84 56.57-356.82 37.71-117.97 94.28-216.12 169.7-294.45 75.43-78.32 160.53-109.75 255.29-94.28 27.08 3.87 48.35-.48 63.82-13.05 15.47-12.57 22.73-27.56 21.76-44.97-.97-17.4-8.22-29.97-21.76-37.71-58.02-32.88-121.84-49.32-191.46-49.32-218.54 0-401.3 91.38-548.29 274.15-146.98 182.76-220.47 397.91-220.47 645.46 0 168.26 42.06 307.99 126.19 419.19 84.13 111.21 206.46 166.81 366.98 166.81 127.64 0 239.33-39.65 335.06-118.94 95.73-79.3 173.57-184.7 233.53-316.21 30.94 303.64 169.22 455.45 414.83 455.45 156.66 0 288.17-73.49 394.54-220.47 106.37-146.98 199.2-352.95 278.49-617.91 13.54-46.41 9.19-82.67-13.06-108.78-22.24-26.11-50.28-34.33-84.12-24.66-33.85 9.67-56.57 35.78-68.18 78.33zm5215.94 1128.47c-3.86-23.2-21.27-36.74-52.21-40.61-59.96-5.8-110.24-22.72-150.85-50.77-40.62-28.04-77.36-77.84-110.24-149.4-23.21-54.15-43.52-112.17-60.92-174.06-17.41-61.88-29.98-131.51-37.71-208.87-7.74-77.35-14.51-146.98-20.31-208.87-5.8-61.88-7.25-140.69-4.35-236.42 2.9-95.74 4.83-169.71 5.8-221.93.97-52.22 6.77-131.51 17.41-237.88 10.63-106.37 17.4-177.44 20.3-213.22 2.9-35.78 10.64-107.34 23.21-214.67 12.57-107.34 19.82-167.77 21.76-181.31 17.4-154.72-60.92-263.99-234.98-327.81-29.01-9.67-50.28-16.44-63.82-20.31-13.54-3.87-33.85-6.77-60.92-8.7-27.08-1.94-49.32 3.87-66.72 17.4-17.41 13.54-31.92 35.78-43.52 66.73-21.27 56.08-85.09 273.17-191.46 651.26-106.37 378.1-208.87 688.5-307.51 931.22-98.63 242.71-190.49 364.07-275.59 364.07-50.28 0-83.16-54.15-98.63-162.46-15.47-108.3-15.96-247.55-1.45-417.74 14.5-170.19 32.39-343.28 53.67-519.27 21.27-175.99 40.61-348.6 58.02-517.82 17.4-169.23 24.17-290.58 20.3-364.07-9.67-154.72-104.43-250.45-284.29-287.2-3.87 0-8.71-.97-14.51-2.9-36.74-13.54-77.84-14.99-123.29-4.35-45.45 10.63-73.97 43.03-85.58 97.18-34.81 183.73-82.68 380.51-143.6 590.35-60.92 209.83-137.79 427.89-230.62 654.17-92.83 226.27-192.92 429.34-300.25 609.2-107.34 179.86-229.66 327.81-366.98 443.85-137.31 116.04-275.59 174.06-414.83 174.06-114.11 0-210.32-38.68-288.65-116.04-78.33-77.36-117.49-188.57-117.49-333.61 0-145.05 42.06-261.09 126.19-348.12 84.13-87.03 173.58-136.35 268.34-147.95 30.95-3.87 52.22-12.57 63.82-26.11 11.61-13.54 15.47-29.01 11.61-46.41-13.54-32.88-52.22-49.32-116.04-49.32-58.02 0-119.43 7.73-184.21 23.21-64.79 15.47-130.55 41.09-197.27 76.87s-126.68 79.3-179.86 130.55c-53.18 51.25-96.7 116.52-130.54 195.81-33.85 79.29-50.77 166.32-50.77 261.09 0 183.73 72.52 333.13 217.57 448.2s319.11 172.61 522.18 172.61c179.86 0 351.98-54.16 516.37-162.46 164.39-108.3 310.4-256.73 438.05-445.3 127.64-188.56 239.81-390.66 336.51-606.3 96.7-215.64 182.76-449.17 258.19-700.58-7.74 117.97-13.06 214.67-15.96 290.09-2.9 75.43-5.8 169.23-8.7 281.4-2.9 112.17-1.94 204.52 2.9 277.04 4.83 72.52 11.6 153.27 20.3 242.23 8.71 88.96 23.21 161.49 43.52 217.57 20.31 56.09 44.48 109.27 72.52 159.56 28.05 50.28 63.82 87.51 107.34 111.68 43.51 24.18 92.35 36.27 146.5 36.27 87.03 0 159.55-25.15 217.57-75.43 65.76-56.08 127.16-129.58 184.21-220.47 57.05-90.9 111.69-205.49 163.91-343.77 52.21-138.28 93.8-253.83 124.74-346.66 30.94-92.83 71.56-225.31 121.84-397.44-29.01 440.95 7.74 830.65 110.24 1169.09 48.35 162.46 119.42 291.07 213.22 385.83 93.8 94.77 207.42 142.15 340.86 142.15 131.51 0 193.4-28.04 185.66-84.13zm1508.51-1128.47c-61.89 205-155.69 366.97-281.4 485.91-125.7 118.94-271.72 178.41-438.04 178.41-119.91 0-217.57-35.3-293-105.89s-126.68-161-153.75-271.24c19.34 1.94 46.41 2.9 81.23 2.9 212.73 0 393.08-45.93 541.03-137.79 147.95-91.87 225.79-209.36 233.52-352.47 5.81-112.17-41.58-212.26-142.14-300.25-100.57-88-236.92-132-409.04-132-235.95 0-419.67 76.88-551.18 230.63-131.51 153.75-197.27 339.9-197.27 558.44 0 90.9 15.47 177.92 46.42 261.09 30.94 83.16 76.39 160.03 136.34 230.62s141.67 126.68 245.13 168.26c103.47 41.58 220.96 62.37 352.47 62.37 234.01 0 438.53-70.59 613.56-211.77 175.02-141.18 302.18-345.22 381.47-612.11 13.54-46.41 9.19-82.67-13.05-108.78-22.24-26.11-50.28-34.33-84.13-24.66-33.84 9.67-56.57 35.78-68.17 78.33zm-870.29-501.87c77.36 0 133.93 25.62 169.7 76.87 35.78 51.25 50.77 116.53 44.97 195.82-7.74 100.57-57.05 187.11-147.95 259.64-90.9 72.52-204.03 108.78-339.41 108.78h-43.52v-29.01c0-102.5 10.16-198.71 30.46-288.64 20.31-89.93 55.6-166.33 105.89-229.18 50.28-62.85 110.23-94.28 179.86-94.28zm2929.98 501.87c-61.89 201.13-133.44 368.42-214.67 501.86-81.23 133.45-164.39 200.17-249.49 200.17-116.03 0-185.66-77.36-208.87-232.08-11.6-87.03-5.8-269.79 17.41-548.28 5.8-85.1 15.96-200.65 30.46-346.67 14.51-146.01 25.14-259.15 31.91-339.41 6.77-80.26 13.06-183.73 18.86-310.4 5.8-126.68 3.87-214.19-5.8-262.54-17.41-152.79-122.81-226.28-316.21-220.48-85.1 5.81-124.74 41.59-118.94 107.34 11.6 73.49 12.09 253.35 1.45 539.58s-29.49 541.52-56.57 765.86c-29.01 228.21-61.89 385.83-98.63 472.86-38.68 102.5-86.55 181.79-143.6 237.87-57.05 56.09-113.62 84.13-169.71 84.13-73.49 0-129.09-36.74-166.8-110.23-37.71-73.5-56.57-167.29-56.57-281.4 0-119.9 18.86-238.84 56.57-356.82 37.71-117.97 94.28-216.12 169.7-294.45 75.43-78.32 160.53-109.75 255.29-94.28 32.88 5.8 57.05 1.94 72.52-11.6 15.48-13.54 21.28-29.01 17.41-46.42-3.87-17.4-12.57-29.97-26.11-37.71-63.82-32.88-127.64-49.32-191.46-49.32-116.04 0-223.86 28.05-323.46 84.13-99.6 56.09-181.31 128.61-245.13 217.58-63.82 88.96-113.14 187.11-147.95 294.44-34.81 107.34-52.22 215.16-52.22 323.46 0 168.26 42.06 307.99 126.19 419.19 84.13 111.21 206.46 166.81 366.98 166.81 137.31 0 255.28-44.97 353.91-134.9 98.64-89.93 176-209.35 232.08-358.27 59.95 342.32 237.88 513.47 533.78 513.47 156.65 0 288.16-73.49 394.53-220.47 106.37-146.98 199.2-352.95 278.49-617.91 13.54-46.41 9.19-82.67-13.05-108.78-22.24-26.11-50.28-34.33-84.13-24.66-33.84 9.67-56.57 35.78-68.17 78.33zm263.99-704.94c75.42 0 137.8-22.72 187.11-68.17 49.32-45.45 75.91-102.02 79.78-169.71 3.87-63.82-18.86-118.94-68.17-165.35-49.32-46.42-109.76-69.63-181.31-69.63-79.3 0-143.12 22.24-191.47 66.72-48.35 44.49-74.46 100.57-78.33 168.26-3.86 65.76 18.86 121.84 68.18 168.26 49.31 46.41 110.72 69.62 184.21 69.62zm-118.94 1459.19c88.96 98.63 206.94 147.95 353.92 147.95 100.56 0 191.46-22.73 272.69-68.18 81.23-45.44 151.82-109.27 211.77-191.46 59.95-82.19 110.72-170.67 152.3-265.44 41.58-94.76 79.78-202.1 114.59-322.01 13.54-46.41 9.19-82.67-13.06-108.78-22.24-26.11-49.8-34.33-82.67-24.66-32.88 9.67-56.09 35.78-69.63 78.33-141.18 469.95-309.43 704.93-504.77 704.93-61.88 0-108.3-31.91-139.24-95.73-19.34-42.55-31.43-101.05-36.26-175.51-4.84-74.46-5.81-139.25-2.9-194.36 2.9-55.12 10.15-142.15 21.75-261.09 11.61-118.94 19.34-198.72 23.21-239.33 13.54-168.26-74.46-259.15-263.99-272.69-94.76-5.8-146.01 34.81-153.75 121.84-61.89 626.61-23.21 1015.34 116.04 1166.19zm2999.6-754.25c-61.89 201.13-133.44 368.42-214.67 501.86-81.23 133.45-164.39 200.17-249.49 200.17-116.03 0-185.66-77.36-208.87-232.08-11.6-87.03-5.8-269.79 17.41-548.28 5.8-85.1 15.96-200.65 30.46-346.67 14.51-146.01 25.14-259.15 31.91-339.41 6.77-80.26 13.06-183.73 18.86-310.4 5.8-126.68 3.87-214.19-5.8-262.54-17.41-152.79-122.81-226.28-316.21-220.48-85.1 5.81-124.74 41.59-118.94 107.34 11.6 73.49 12.09 253.35 1.45 539.58s-29.49 541.52-56.57 765.86c-29.01 228.21-61.89 385.83-98.63 472.86-38.68 102.5-86.55 181.79-143.6 237.87-57.05 56.09-113.62 84.13-169.71 84.13-73.49 0-129.09-36.74-166.8-110.23-37.71-73.5-56.57-167.29-56.57-281.4 0-119.9 18.86-238.84 56.57-356.82 37.71-117.97 94.28-216.12 169.7-294.45 75.43-78.32 160.53-109.75 255.29-94.28 32.88 5.8 57.05 1.94 72.52-11.6 15.48-13.54 21.28-29.01 17.41-46.42-3.87-17.4-12.57-29.97-26.11-37.71-63.82-32.88-127.64-49.32-191.46-49.32-116.04 0-223.86 28.05-323.46 84.13-99.6 56.09-181.31 128.61-245.13 217.58-63.82 88.96-113.14 187.11-147.95 294.44-34.81 107.34-52.22 215.16-52.22 323.46 0 168.26 42.06 307.99 126.19 419.19 84.13 111.21 206.46 166.81 366.98 166.81 137.31 0 255.28-44.97 353.91-134.9 98.64-89.93 176-209.35 232.08-358.27 59.95 342.32 237.88 513.47 533.78 513.47 156.65 0 288.16-73.49 394.53-220.47 106.37-146.98 199.2-352.95 278.49-617.91 13.54-46.41 9.19-82.67-13.05-108.78-22.24-26.11-50.28-34.33-84.13-24.66-33.84 9.67-56.57 35.78-68.17 78.33zm1923.34 0c-61.88 201.13-133.44 367.94-214.67 500.41-81.22 132.48-164.39 198.72-249.48 198.72-40.61 0-70.11-23.69-88.48-71.07-18.37-47.39-26.11-111.21-23.21-191.47 2.9-80.26 9.19-159.55 18.86-237.88 9.67-78.32 20.79-162.45 33.36-252.38s19.82-153.27 21.76-190.02c11.6-154.71-77.36-247.55-266.89-278.49-90.9-13.54-137.32 14.51-139.25 84.13 0 87.03-12.57 211.29-37.71 372.77-25.14 161.49-57.05 289.62-95.73 384.38-40.62 104.44-88 185.66-142.15 243.68-54.15 58.02-108.3 87.03-162.46 87.03-73.49 0-129.09-36.74-166.8-110.23-37.71-73.5-56.57-167.29-56.57-281.4 0-119.9 18.86-238.84 56.57-356.82 37.71-117.97 94.28-216.12 169.7-294.45 75.43-78.32 160.53-109.75 255.29-94.28 27.08 3.87 48.35-.48 63.82-13.05 15.47-12.57 22.73-27.56 21.76-44.97-.97-17.4-8.22-29.97-21.76-37.71-58.02-32.88-121.84-49.32-191.46-49.32-218.54 0-401.3 91.38-548.29 274.15-146.98 182.76-220.47 397.91-220.47 645.46 0 168.26 42.06 307.99 126.19 419.19 84.13 111.21 206.46 166.81 366.98 166.81 127.64 0 239.33-39.65 335.06-118.94 95.73-79.3 173.57-184.7 233.53-316.21 30.94 303.64 169.22 455.45 414.83 455.45 156.66 0 288.17-73.49 394.54-220.47 106.37-146.98 199.2-352.95 278.49-617.91 13.54-46.41 9.19-82.67-13.06-108.78-22.24-26.11-50.28-34.33-84.12-24.66-33.85 9.67-56.57 35.78-68.18 78.33z"/><path d="M6610.65 6809.93c19.5-224.48 96.39-204.8 278.77-266.04l-76.27 337.35-202.5-71.31zm5022.29 2559.36c-32.58 30.49-47.34 35-81.13 62.04-30.74 24.59-51.53 46.07-81.05 68.37-56.86 42.96-104.72 55.25-158.56 113.74-104.74 40.97-508.84 308.81-591.99 274.79-52.1-21.3-215.89-164.8-248.72-197.56-385.39-384.67-735.34-938.89-794.59-1549.1-32.76-337.22.92-592.77 138.48-825.57 86.55-146.48 270.89-352.84 509.48-384.64 654.27-87.17 537.89 900.83 656.85 1199.97 81.55-94.17 249.52-439.22 516.43-683.47 204.68-187.3 633.27-242.04 816.59-20.3 323.62 391.45-52.15 1222.1-328.64 1572.51-129.69 164.35-213.51 235.64-353.15 369.22zm961.93-1842.81c-206.06-678.14-1007.32-581.93-1372.82-99.27-48.94 64.63-80.68 152.64-141.74 210.11-17.84-323.89-51.04-471.92-187.59-679.64-99.41-151.24-319.01-287.38-569.06-259.85-388.73 42.79-742.87 458.46-815.47 870.66-131.1 744.34 178.7 1485.13 576.04 1985.18 259.08 326.05 227.59 234.4 419.08 436.24-101.73 76.22-623.47 231.71-793.29 298.28-258.23 101.22-561.79 220.83-854.82 243.95-628.5 49.58-1080.6-479.16-944.24-1317.12 109.25-671.41 808.6-2161.34-35.44-2806.23-272.97-208.57-563.13-130.72-866.78-57.02 7.42-199.47-39.51-557.38-229.38-326.75-102.65 124.68-156.71 301.74-195.31 511.93-211.32 97.74-510.15 160.39-752.72 199-133.43 21.24-799.98 66.93-849.65 94.63 145.11 62.63 646.31 11.58 826.95-5.99 130.62-12.7 257.07-31.5 381.69-56.95 120.16-24.55 248.15-75.76 361.84-89.56-44.2 290.53-131.12 651.43-195.21 948.93l-984.74 4750.64c-59.31 290.79-378.33 1747.01-383.91 1899.33L6734.97 7477.9c72.74-303.01 201.14-691.58 247.12-982.34 303.5-87.6 680.8-132.8 896 97.71 199.17 213.33 312.22 599.01 262.49 1017.28-99.79 839.23-923.38 2270.19 70.16 2962.59 541.76 377.57 1247.03 39.65 1830.96-176.87 141.81-52.59 281.56-96.31 428.33-151.61 345.85-130.32 220.11-107.13 418.56-39.75 417.68 141.8 1084.55 53.21 1351.15 389.47 109.74 138.41 104.06 286.68 146.46 504.2 176.36 904.9 876.7 684.86 1529.51 474.23 979.49-316.03 1003.14-38.37 1648.58 440.97 248.16 184.29 576.67 225.04 898.87 267.31 296.11 38.84 789.41 66.32 929.36-184.31-164.91 98.58-199.46 129.54-426.89 136.91-408.5 13.23-1054.78-108.44-1370.99-340.09-602.51-441.37-651.78-796.52-1597.8-512.82-250.22 75.03-670.17 220.49-940.69 204.34-834.48-49.84-180.08-1062.25-1063.95-1376.8-320.1-113.92-676.15-84.47-972.57-186.21 667.7-457.97 1947.99-1268.86 1575.24-2495.63zM6678.1 6496.4c36.51-145.24 80.46-278.58 195.44-310.13 24.84 76.19 28.99 111.66 27.22 213.78l-222.66 96.35z" style="fill:#d94167"/></g></g></svg>